<svg width="602" height="602" viewBox="0 0 602 602" fill="none" xmlns="http://www.w3.org/2000/svg">
<path d="M541.68 479.782H501.803V480.083H541.68V479.782Z" fill="#EBEBEB"/>
<path d="M398.789 483.057H388.326V483.358H398.789V483.057Z" fill="#EBEBEB"/>
<path d="M500.599 468.609H477.494V468.91H500.599V468.609Z" fill="#EBEBEB"/>
<path d="M115.163 470.632H63.1619V470.933H115.163V470.632Z" fill="#EBEBEB"/>
<path d="M133.512 470.632H125.89V470.933H133.512V470.632Z" fill="#EBEBEB"/>
<path d="M271.081 475.712H158.29V476.013H271.081V475.712Z" fill="#EBEBEB"/>
<path d="M285.348 406.711H52.8797C51.0563 406.711 49.3077 405.987 48.0184 404.698C46.7291 403.408 46.0048 401.66 46.0048 399.836V73.0346C46.0207 71.2217 46.752 69.4885 48.0396 68.2122C49.3271 66.9359 51.0667 66.2199 52.8797 66.22H285.348C287.171 66.22 288.92 66.9443 290.209 68.2336C291.498 69.5228 292.223 71.2715 292.223 73.0948V399.836C292.223 401.66 291.498 403.408 290.209 404.698C288.92 405.987 287.171 406.711 285.348 406.711ZM52.8797 66.4608C51.1371 66.464 49.4669 67.1576 48.2348 68.3897C47.0026 69.6219 46.309 71.2921 46.3058 73.0346V399.836C46.309 401.579 47.0026 403.249 48.2348 404.481C49.4669 405.713 51.1371 406.407 52.8797 406.41H285.348C287.09 406.407 288.761 405.713 289.993 404.481C291.225 403.249 291.919 401.579 291.922 399.836V73.0346C291.919 71.2921 291.225 69.6219 289.993 68.3897C288.761 67.1576 287.09 66.464 285.348 66.4608H52.8797Z" fill="#EBEBEB"/>
<path d="M545.785 406.711H313.293C311.47 406.708 309.724 405.983 308.435 404.694C307.147 403.405 306.421 401.659 306.418 399.836V73.0346C306.437 71.2227 307.169 69.4913 308.456 68.2157C309.743 66.9401 311.481 66.223 313.293 66.22H545.785C547.594 66.2262 549.327 66.9451 550.61 68.2207C551.892 69.4963 552.62 71.2259 552.636 73.0346V399.836C552.636 401.655 551.915 403.4 550.631 404.689C549.347 405.978 547.604 406.705 545.785 406.711ZM313.293 66.4608C311.55 66.464 309.88 67.1576 308.648 68.3897C307.416 69.6219 306.722 71.2921 306.719 73.0346V399.836C306.722 401.579 307.416 403.249 308.648 404.481C309.88 405.713 311.55 406.407 313.293 406.41H545.785C547.528 406.407 549.198 405.713 550.43 404.481C551.662 403.249 552.356 401.579 552.359 399.836V73.0346C552.356 71.2921 551.662 69.6219 550.43 68.3897C549.198 67.1576 547.528 66.464 545.785 66.4608H313.293Z" fill="#EBEBEB"/>
<path d="M602 460.41H0V460.711H602V460.41Z" fill="#EBEBEB"/>
<path d="M518.743 169.451H416.909V426.011H518.743V169.451Z" fill="#E0E0E0"/>
<path d="M518.743 167.199V428.263H537.502V167.199H518.743Z" fill="#E6E6E6"/>
<path d="M399.054 167.199V428.263H417.788V167.199H399.054Z" fill="#E6E6E6"/>
<path d="M395.863 167.199V428.263H520.995V167.199H395.863ZM516.516 171.702V218.514H400.366V171.702H516.516ZM400.366 321.131V274.319H516.516V321.131H400.366ZM516.516 325.634V372.445H400.366V325.634H516.516ZM400.39 269.828V223.017H516.516V269.828H400.39ZM400.39 423.76V376.948H516.516V423.808L400.39 423.76Z" fill="#F5F5F5"/>
<path d="M475.929 218.935H480.252V182.611H475.929V218.935Z" fill="#E6E6E6"/>
<path d="M480.264 218.935H484.586V182.611H480.264V218.935Z" fill="#E0E0E0"/>
<path d="M467.26 218.935H475.917V185.163H467.26V218.935Z" fill="#E6E6E6"/>
<path d="M457.351 218.935H462.95V182.611H457.351V218.935Z" fill="#F0F0F0"/>
<path d="M462.95 218.935H467.272V182.611H462.95V218.935Z" fill="#EBEBEB"/>
<path d="M424.506 218.935H430.105V182.611H424.506V218.935Z" fill="#E6E6E6"/>
<path d="M430.117 218.935H434.439V182.611H430.117V218.935Z" fill="#EBEBEB"/>
<path d="M443.084 218.935H448.683V182.611H443.084V218.935Z" fill="#E6E6E6"/>
<path d="M448.695 218.935H453.017V182.611H448.695V218.935Z" fill="#E0E0E0"/>
<path d="M415.862 218.935H424.518V183.478H415.862V218.935Z" fill="#EBEBEB"/>
<path d="M411.527 218.935H415.862V183.478H411.527V218.935Z" fill="#E0E0E0"/>
<path d="M437.317 218.935H443.084V183.478H437.317V218.935Z" fill="#E0E0E0"/>
<path d="M434.427 218.935H437.317V183.478H434.427V218.935Z" fill="#F0F0F0"/>
<path d="M448.695 218.935H457.351V185.163H448.695V218.935Z" fill="#F5F5F5"/>
<path d="M497.565 218.935H503.164V182.611H497.565V218.935Z" fill="#EBEBEB"/>
<path d="M503.164 218.935H507.486V182.611H503.164V218.935Z" fill="#E6E6E6"/>
<path d="M488.908 218.935H497.565V183.478H488.908V218.935Z" fill="#E0E0E0"/>
<path d="M484.574 218.935H488.908V183.478H484.574V218.935Z" fill="#EBEBEB"/>
<path d="M510.376 218.935H516.143V183.478H510.376V218.935Z" fill="#EBEBEB"/>
<path d="M507.486 218.935H510.376V183.478H507.486V218.935Z" fill="#FAFAFA"/>
<path d="M451.741 233.48H447.418V269.804H451.741V233.48Z" fill="#E6E6E6"/>
<path d="M447.418 233.48H443.096V269.804H447.418V233.48Z" fill="#E0E0E0"/>
<path d="M460.41 236.032H451.753V269.804H460.41V236.032Z" fill="#E6E6E6"/>
<path d="M470.331 233.48H464.732V269.804H470.331V233.48Z" fill="#F0F0F0"/>
<path d="M464.744 233.48H460.41V269.804H464.744V233.48Z" fill="#EBEBEB"/>
<path d="M503.164 233.48H497.565V269.804H503.164V233.48Z" fill="#E6E6E6"/>
<path d="M497.565 233.48H493.243V269.804H497.565V233.48Z" fill="#EBEBEB"/>
<path d="M484.586 233.48H478.987V269.804H484.586V233.48Z" fill="#E6E6E6"/>
<path d="M478.975 233.48H474.653V269.804H478.975V233.48Z" fill="#E0E0E0"/>
<path d="M511.82 234.347H503.164V269.804H511.82V234.347Z" fill="#EBEBEB"/>
<path d="M516.155 234.347H511.82V269.804H516.155V234.347Z" fill="#E0E0E0"/>
<path d="M490.353 234.347H484.586V269.804H490.353V234.347Z" fill="#E0E0E0"/>
<path d="M493.243 234.347H490.353V269.804H493.243V234.347Z" fill="#F0F0F0"/>
<path d="M478.987 236.032H470.331V269.804H478.987V236.032Z" fill="#F5F5F5"/>
<path d="M430.117 233.48H424.518V269.804H430.117V233.48Z" fill="#EBEBEB"/>
<path d="M424.506 233.48H420.184V269.804H424.506V233.48Z" fill="#E6E6E6"/>
<path d="M438.762 234.347H430.105V269.804H438.762V234.347Z" fill="#E0E0E0"/>
<path d="M443.096 234.347H438.762V269.804H443.096V234.347Z" fill="#EBEBEB"/>
<path d="M417.294 234.347H411.527V269.804H417.294V234.347Z" fill="#EBEBEB"/>
<path d="M420.196 234.347H417.306V269.804H420.196V234.347Z" fill="#FAFAFA"/>
<path d="M451.741 285.24H447.418V321.564H451.741V285.24Z" fill="#E6E6E6"/>
<path d="M447.418 285.24H443.096V321.564H447.418V285.24Z" fill="#E0E0E0"/>
<path d="M460.41 287.792H451.753V321.564H460.41V287.792Z" fill="#E6E6E6"/>
<path d="M470.331 285.24H464.732V321.564H470.331V285.24Z" fill="#F0F0F0"/>
<path d="M464.744 285.24H460.41V321.564H464.744V285.24Z" fill="#EBEBEB"/>
<path d="M503.164 285.24H497.565V321.564H503.164V285.24Z" fill="#E6E6E6"/>
<path d="M497.565 285.24H493.243V321.564H497.565V285.24Z" fill="#EBEBEB"/>
<path d="M484.586 285.24H478.987V321.564H484.586V285.24Z" fill="#E6E6E6"/>
<path d="M478.975 285.24H474.653V321.564H478.975V285.24Z" fill="#E0E0E0"/>
<path d="M511.82 286.107H503.164V321.564H511.82V286.107Z" fill="#EBEBEB"/>
<path d="M516.155 286.107H511.82V321.564H516.155V286.107Z" fill="#E0E0E0"/>
<path d="M490.353 286.107H484.586V321.564H490.353V286.107Z" fill="#E0E0E0"/>
<path d="M493.243 286.107H490.353V321.564H493.243V286.107Z" fill="#F0F0F0"/>
<path d="M478.987 287.792H470.331V321.564H478.987V287.792Z" fill="#F5F5F5"/>
<path d="M430.117 285.24H424.518V321.564H430.117V285.24Z" fill="#EBEBEB"/>
<path d="M424.506 285.24H420.184V321.564H424.506V285.24Z" fill="#E6E6E6"/>
<path d="M438.762 286.107H430.105V321.564H438.762V286.107Z" fill="#E0E0E0"/>
<path d="M443.096 286.107H438.762V321.564H443.096V286.107Z" fill="#EBEBEB"/>
<path d="M417.294 286.107H411.527V321.564H417.294V286.107Z" fill="#EBEBEB"/>
<path d="M420.196 286.107H417.306V321.564H420.196V286.107Z" fill="#FAFAFA"/>
<path d="M475.929 373.324H480.252V337H475.929V373.324Z" fill="#E6E6E6"/>
<path d="M480.264 373.324H484.586V337H480.264V373.324Z" fill="#E0E0E0"/>
<path d="M467.26 370.772H475.917V337H467.26V370.772Z" fill="#E6E6E6"/>
<path d="M457.351 373.324H462.95V337H457.351V373.324Z" fill="#F0F0F0"/>
<path d="M462.95 373.324H467.272V337H462.95V373.324Z" fill="#EBEBEB"/>
<path d="M424.506 373.324H430.105V337H424.506V373.324Z" fill="#E6E6E6"/>
<path d="M430.117 373.324H434.439V337H430.117V373.324Z" fill="#EBEBEB"/>
<path d="M443.084 373.324H448.683V337H443.084V373.324Z" fill="#E6E6E6"/>
<path d="M448.695 373.324H453.017V337H448.695V373.324Z" fill="#E0E0E0"/>
<path d="M415.862 372.469H424.518V337.012H415.862V372.469Z" fill="#EBEBEB"/>
<path d="M411.527 372.469H415.862V337.012H411.527V372.469Z" fill="#E0E0E0"/>
<path d="M437.317 372.469H443.084V337.012H437.317V372.469Z" fill="#E0E0E0"/>
<path d="M434.427 372.469H437.317V337.012H434.427V372.469Z" fill="#F0F0F0"/>
<path d="M448.695 370.772H457.351V337H448.695V370.772Z" fill="#F5F5F5"/>
<path d="M497.565 373.324H503.164V337H497.565V373.324Z" fill="#EBEBEB"/>
<path d="M503.164 373.324H507.486V337H503.164V373.324Z" fill="#E6E6E6"/>
<path d="M488.908 372.469H497.565V337.012H488.908V372.469Z" fill="#E0E0E0"/>
<path d="M484.574 372.469H488.908V337.012H484.574V372.469Z" fill="#EBEBEB"/>
<path d="M510.376 372.469H516.143V337.012H510.376V372.469Z" fill="#EBEBEB"/>
<path d="M507.486 372.469H510.376V337.012H507.486V372.469Z" fill="#FAFAFA"/>
<path d="M451.741 388.771H447.418V425.096H451.741V388.771Z" fill="#E6E6E6"/>
<path d="M447.418 388.771H443.096V425.096H447.418V388.771Z" fill="#E0E0E0"/>
<path d="M460.41 388.771H451.753V422.544H460.41V388.771Z" fill="#E6E6E6"/>
<path d="M470.331 388.771H464.732V425.096H470.331V388.771Z" fill="#F0F0F0"/>
<path d="M464.744 388.771H460.41V425.096H464.744V388.771Z" fill="#EBEBEB"/>
<path d="M503.164 388.771H497.565V425.096H503.164V388.771Z" fill="#E6E6E6"/>
<path d="M497.565 388.771H493.243V425.096H497.565V388.771Z" fill="#EBEBEB"/>
<path d="M484.586 388.771H478.987V425.096H484.586V388.771Z" fill="#E6E6E6"/>
<path d="M478.975 388.771H474.653V425.096H478.975V388.771Z" fill="#E0E0E0"/>
<path d="M511.82 388.771H503.164V424.229H511.82V388.771Z" fill="#EBEBEB"/>
<path d="M516.155 388.771H511.82V424.229H516.155V388.771Z" fill="#E0E0E0"/>
<path d="M490.353 388.771H484.586V424.229H490.353V388.771Z" fill="#E0E0E0"/>
<path d="M493.243 388.771H490.353V424.229H493.243V388.771Z" fill="#F0F0F0"/>
<path d="M478.987 388.771H470.331V422.544H478.987V388.771Z" fill="#F5F5F5"/>
<path d="M430.117 388.771H424.518V425.096H430.117V388.771Z" fill="#EBEBEB"/>
<path d="M424.506 388.771H420.184V425.096H424.506V388.771Z" fill="#E6E6E6"/>
<path d="M438.762 388.771H430.105V424.229H438.762V388.771Z" fill="#E0E0E0"/>
<path d="M443.096 388.771H438.762V424.229H443.096V388.771Z" fill="#EBEBEB"/>
<path d="M417.294 388.771H411.527V424.229H417.294V388.771Z" fill="#EBEBEB"/>
<path d="M420.196 388.771H417.306V424.229H420.196V388.771Z" fill="#FAFAFA"/>
<path d="M516.263 121.122H440.255V146.286H516.263V121.122Z" fill="#E6E6E6"/>
<path d="M441.531 66.4608H440.327V121.122H441.531V66.4608Z" fill="#E6E6E6"/>
<path d="M516.143 66.4608H514.939V121.122H516.143V66.4608Z" fill="#E6E6E6"/>
<path d="M394.298 155.737H277.691V449.513H394.298V155.737Z" fill="#E0E0E0"/>
<path d="M394.298 153.161V452.09H415.777V153.161H394.298Z" fill="#E6E6E6"/>
<path d="M257.235 153.161V452.09H278.726V153.161H257.235Z" fill="#E6E6E6"/>
<path d="M253.586 153.161V452.09H396.862V153.161H253.586ZM391.721 158.314V211.904H258.74V158.314H391.721ZM258.74 329.426V275.824H391.721V329.426H258.74ZM391.721 334.58V388.182H258.74V334.58H391.721ZM258.74 270.671V217.069H391.721V270.671H258.74ZM258.74 446.937V393.335H391.721V446.937H258.74Z" fill="#F5F5F5"/>
<path d="M345.259 212.41H350.22V170.823H345.259V212.41Z" fill="#E6E6E6"/>
<path d="M350.207 212.41H355.168V170.823H350.207V212.41Z" fill="#E0E0E0"/>
<path d="M335.35 212.398H345.259V173.725H335.35V212.398Z" fill="#E6E6E6"/>
<path d="M323.996 212.41H330.402V170.823H323.996V212.41Z" fill="#F0F0F0"/>
<path d="M330.39 212.41H335.35V170.823H330.39V212.41Z" fill="#EBEBEB"/>
<path d="M286.395 212.41H292.801V170.823H286.395V212.41Z" fill="#E6E6E6"/>
<path d="M292.801 212.41H297.761V170.823H292.801V212.41Z" fill="#EBEBEB"/>
<path d="M307.67 212.41H314.075V170.823H307.67V212.41Z" fill="#E6E6E6"/>
<path d="M314.075 212.41H319.036V170.823H314.075V212.41Z" fill="#E0E0E0"/>
<path d="M276.487 212.41H286.395V171.799H276.487V212.41Z" fill="#EBEBEB"/>
<path d="M271.526 212.41H276.487V171.799H271.526V212.41Z" fill="#E0E0E0"/>
<path d="M301.06 212.41H307.67V171.799H301.06V212.41Z" fill="#E0E0E0"/>
<path d="M297.761 212.41H301.06V171.799H297.761V212.41Z" fill="#F0F0F0"/>
<path d="M314.075 212.398H323.984V173.725H314.075V212.398Z" fill="#F5F5F5"/>
<path d="M370.049 212.41H376.455V170.823H370.049V212.41Z" fill="#EBEBEB"/>
<path d="M376.443 212.41H381.403V170.823H376.443V212.41Z" fill="#E6E6E6"/>
<path d="M360.128 212.41H370.037V171.799H360.128V212.41Z" fill="#E0E0E0"/>
<path d="M355.18 212.41H360.14V171.799H355.18V212.41Z" fill="#EBEBEB"/>
<path d="M384.714 212.41H391.324V171.799H384.714V212.41Z" fill="#EBEBEB"/>
<path d="M381.403 212.41H384.702V171.799H381.403V212.41Z" fill="#FAFAFA"/>
<path d="M317.591 229.049H312.631V270.635H317.591V229.049Z" fill="#E6E6E6"/>
<path d="M312.631 229.049H307.67V270.635H312.631V229.049Z" fill="#E0E0E0"/>
<path d="M327.488 231.975H317.579V270.647H327.488V231.975Z" fill="#E6E6E6"/>
<path d="M338.854 229.049H332.448V270.635H338.854V229.049Z" fill="#F0F0F0"/>
<path d="M332.461 229.049H327.5V270.635H332.461V229.049Z" fill="#EBEBEB"/>
<path d="M376.443 229.049H370.037V270.635H376.443V229.049Z" fill="#E6E6E6"/>
<path d="M370.049 229.049H365.089V270.635H370.049V229.049Z" fill="#EBEBEB"/>
<path d="M355.168 229.049H348.763V270.635H355.168V229.049Z" fill="#E6E6E6"/>
<path d="M348.775 229.049H343.814V270.635H348.775V229.049Z" fill="#E0E0E0"/>
<path d="M386.352 230.036H376.443V270.647H386.352V230.036Z" fill="#EBEBEB"/>
<path d="M391.324 230.036H386.364V270.647H391.324V230.036Z" fill="#E0E0E0"/>
<path d="M361.778 230.036H355.168V270.647H361.778V230.036Z" fill="#E0E0E0"/>
<path d="M365.077 230.036H361.778V270.647H365.077V230.036Z" fill="#F0F0F0"/>
<path d="M348.763 231.975H338.854V270.647H348.763V231.975Z" fill="#F5F5F5"/>
<path d="M292.801 229.049H286.395V270.635H292.801V229.049Z" fill="#EBEBEB"/>
<path d="M286.395 229.049H281.435V270.635H286.395V229.049Z" fill="#E6E6E6"/>
<path d="M302.71 230.036H292.801V270.647H302.71V230.036Z" fill="#E0E0E0"/>
<path d="M307.67 230.036H302.71V270.647H307.67V230.036Z" fill="#EBEBEB"/>
<path d="M278.136 230.036H271.526V270.647H278.136V230.036Z" fill="#EBEBEB"/>
<path d="M281.435 230.036H278.136V270.647H281.435V230.036Z" fill="#FAFAFA"/>
<path d="M317.591 288.322H312.631V329.908H317.591V288.322Z" fill="#E6E6E6"/>
<path d="M312.631 288.322H307.67V329.908H312.631V288.322Z" fill="#E0E0E0"/>
<path d="M327.488 291.248H317.579V329.92H327.488V291.248Z" fill="#E6E6E6"/>
<path d="M338.854 288.322H332.448V329.908H338.854V288.322Z" fill="#F0F0F0"/>
<path d="M332.461 288.322H327.5V329.908H332.461V288.322Z" fill="#EBEBEB"/>
<path d="M376.443 288.322H370.037V329.908H376.443V288.322Z" fill="#E6E6E6"/>
<path d="M370.049 288.322H365.089V329.908H370.049V288.322Z" fill="#EBEBEB"/>
<path d="M355.168 288.322H348.763V329.908H355.168V288.322Z" fill="#E6E6E6"/>
<path d="M348.775 288.322H343.814V329.908H348.775V288.322Z" fill="#E0E0E0"/>
<path d="M386.352 289.309H376.443V329.92H386.352V289.309Z" fill="#EBEBEB"/>
<path d="M391.324 289.309H386.364V329.92H391.324V289.309Z" fill="#E0E0E0"/>
<path d="M361.778 289.309H355.168V329.92H361.778V289.309Z" fill="#E0E0E0"/>
<path d="M365.077 289.309H361.778V329.92H365.077V289.309Z" fill="#F0F0F0"/>
<path d="M348.763 291.248H338.854V329.92H348.763V291.248Z" fill="#F5F5F5"/>
<path d="M292.801 288.322H286.395V329.908H292.801V288.322Z" fill="#EBEBEB"/>
<path d="M286.395 288.322H281.435V329.908H286.395V288.322Z" fill="#E6E6E6"/>
<path d="M302.71 289.309H292.801V329.92H302.71V289.309Z" fill="#E0E0E0"/>
<path d="M307.67 289.309H302.71V329.92H307.67V289.309Z" fill="#EBEBEB"/>
<path d="M278.136 289.309H271.526V329.92H278.136V289.309Z" fill="#EBEBEB"/>
<path d="M281.435 289.309H278.136V329.92H281.435V289.309Z" fill="#FAFAFA"/>
<path d="M345.259 389.181H350.22V347.595H345.259V389.181Z" fill="#E6E6E6"/>
<path d="M350.207 389.181H355.168V347.595H350.207V389.181Z" fill="#E0E0E0"/>
<path d="M335.35 386.267H345.259V347.595H335.35V386.267Z" fill="#E6E6E6"/>
<path d="M323.996 389.181H330.402V347.595H323.996V389.181Z" fill="#F0F0F0"/>
<path d="M330.39 389.181H335.35V347.595H330.39V389.181Z" fill="#EBEBEB"/>
<path d="M286.395 389.181H292.801V347.595H286.395V389.181Z" fill="#E6E6E6"/>
<path d="M292.801 389.181H297.761V347.595H292.801V389.181Z" fill="#EBEBEB"/>
<path d="M307.67 389.181H314.075V347.595H307.67V389.181Z" fill="#E6E6E6"/>
<path d="M314.075 389.181H319.036V347.595H314.075V389.181Z" fill="#E0E0E0"/>
<path d="M276.487 388.206H286.395V347.595H276.487V388.206Z" fill="#EBEBEB"/>
<path d="M271.526 388.206H276.487V347.595H271.526V388.206Z" fill="#E0E0E0"/>
<path d="M301.06 388.206H307.67V347.595H301.06V388.206Z" fill="#E0E0E0"/>
<path d="M297.761 388.206H301.06V347.595H297.761V388.206Z" fill="#F0F0F0"/>
<path d="M314.075 386.267H323.984V347.595H314.075V386.267Z" fill="#F5F5F5"/>
<path d="M370.049 389.181H376.455V347.595H370.049V389.181Z" fill="#EBEBEB"/>
<path d="M376.443 389.181H381.403V347.595H376.443V389.181Z" fill="#E6E6E6"/>
<path d="M360.128 388.206H370.037V347.595H360.128V388.206Z" fill="#E0E0E0"/>
<path d="M355.18 388.206H360.14V347.595H355.18V388.206Z" fill="#EBEBEB"/>
<path d="M384.714 388.206H391.324V347.595H384.714V388.206Z" fill="#EBEBEB"/>
<path d="M381.403 388.206H384.702V347.595H381.403V388.206Z" fill="#FAFAFA"/>
<path d="M317.591 406.868H312.631V448.454H317.591V406.868Z" fill="#E6E6E6"/>
<path d="M312.631 406.868H307.67V448.454H312.631V406.868Z" fill="#E0E0E0"/>
<path d="M327.488 406.868H317.579V445.54H327.488V406.868Z" fill="#E6E6E6"/>
<path d="M338.854 406.868H332.448V448.454H338.854V406.868Z" fill="#F0F0F0"/>
<path d="M332.461 406.868H327.5V448.454H332.461V406.868Z" fill="#EBEBEB"/>
<path d="M376.443 406.868H370.037V448.454H376.443V406.868Z" fill="#E6E6E6"/>
<path d="M370.049 406.868H365.089V448.454H370.049V406.868Z" fill="#EBEBEB"/>
<path d="M355.168 406.868H348.763V448.454H355.168V406.868Z" fill="#E6E6E6"/>
<path d="M348.775 406.868H343.814V448.454H348.775V406.868Z" fill="#E0E0E0"/>
<path d="M386.352 406.868H376.443V447.479H386.352V406.868Z" fill="#EBEBEB"/>
<path d="M391.324 406.868H386.364V447.479H391.324V406.868Z" fill="#E0E0E0"/>
<path d="M361.778 406.868H355.168V447.479H361.778V406.868Z" fill="#E0E0E0"/>
<path d="M365.077 406.868H361.778V447.479H365.077V406.868Z" fill="#F0F0F0"/>
<path d="M348.763 406.868H338.854V445.54H348.763V406.868Z" fill="#F5F5F5"/>
<path d="M292.801 406.868H286.395V448.454H292.801V406.868Z" fill="#EBEBEB"/>
<path d="M286.395 406.868H281.435V448.454H286.395V406.868Z" fill="#E6E6E6"/>
<path d="M302.71 406.868H292.801V447.479H302.71V406.868Z" fill="#E0E0E0"/>
<path d="M307.67 406.868H302.71V447.479H307.67V406.868Z" fill="#EBEBEB"/>
<path d="M278.136 406.868H271.526V447.479H278.136V406.868Z" fill="#EBEBEB"/>
<path d="M281.435 406.868H278.136V447.479H281.435V406.868Z" fill="#FAFAFA"/>
<path d="M373.336 100.402H286.299V129.213H373.336V100.402Z" fill="#E6E6E6"/>
<path d="M287.672 66.4608H286.468V100.39H287.672V66.4608Z" fill="#E6E6E6"/>
<path d="M373.192 66.1598H371.988V100.39H373.192V66.1598Z" fill="#E6E6E6"/>
<path d="M295.197 510.147C424.124 510.147 528.64 504.045 528.64 496.518C528.64 488.99 424.124 482.888 295.197 482.888C166.269 482.888 61.7532 488.99 61.7532 496.518C61.7532 504.045 166.269 510.147 295.197 510.147Z" fill="#F5F5F5"/>
<path d="M500.31 410.251H507.065L518.659 488.993C518.948 491.015 517.383 491.81 515.348 491.81C513.687 491.81 512.29 491.605 512.037 489.968L500.31 410.251Z" fill="#263238"/>
<path opacity="0.2" d="M500.31 410.251H507.065L518.659 488.993C518.948 491.015 517.383 491.81 515.348 491.81C513.687 491.81 512.29 491.605 512.037 489.968L500.31 410.251Z" fill="white"/>
<path d="M478.903 410.251H485.657L491.473 489.209C491.617 491.16 490.076 491.81 488.114 491.81C486.356 491.81 484.887 491.461 484.754 489.703L478.903 410.251Z" fill="#263238"/>
<path opacity="0.2" d="M478.903 410.251H485.657L491.473 489.209C491.617 491.16 490.076 491.81 488.114 491.81C486.356 491.81 484.887 491.461 484.754 489.703L478.903 410.251Z" fill="white"/>
<path d="M462.89 410.251H456.135L450.296 489.209C450.152 491.16 451.705 491.81 453.655 491.81C455.425 491.81 456.882 491.461 457.014 489.703L462.89 410.251Z" fill="#263238"/>
<path opacity="0.2" d="M462.89 410.251H456.135L450.296 489.209C450.152 491.16 451.705 491.81 453.655 491.81C455.425 491.81 456.882 491.461 457.014 489.703L462.89 410.251Z" fill="white"/>
<path d="M441.495 410.251H434.74L423.146 488.993C422.845 491.015 424.41 491.81 426.445 491.81C428.106 491.81 429.515 491.605 429.756 489.968L441.495 410.251Z" fill="#263238"/>
<path opacity="0.2" d="M441.495 410.251H434.74L423.146 488.993C422.845 491.015 424.41 491.81 426.445 491.81C428.106 491.81 429.515 491.605 429.756 489.968L441.495 410.251Z" fill="white"/>
<path d="M488.993 319.385L460.843 405.254H522.416L533.059 314.786H495.35C493.94 314.784 492.567 315.228 491.425 316.054C490.283 316.88 489.432 318.046 488.993 319.385Z" fill="#263238"/>
<path opacity="0.2" d="M488.993 319.385L460.843 405.254H522.416L533.059 314.786H495.35C493.94 314.784 492.567 315.228 491.425 316.054C490.283 316.88 489.432 318.046 488.993 319.385Z" fill="white"/>
<path d="M479.349 398.367H418.366C417.696 398.367 417.033 398.5 416.414 398.756C415.796 399.013 415.234 399.389 414.76 399.863C414.287 400.338 413.912 400.9 413.657 401.52C413.402 402.139 413.271 402.803 413.273 403.472V407.024C413.271 407.694 413.402 408.358 413.657 408.977C413.912 409.596 414.287 410.159 414.76 410.633C415.234 411.107 415.796 411.484 416.414 411.74C417.033 411.997 417.696 412.129 418.366 412.129H479.349V398.367Z" fill="#263238"/>
<path opacity="0.1" d="M479.349 398.367H418.366C417.696 398.367 417.033 398.5 416.414 398.756C415.796 399.013 415.234 399.389 414.76 399.863C414.287 400.338 413.912 400.9 413.657 401.52C413.402 402.139 413.271 402.803 413.273 403.472V407.024C413.271 407.694 413.402 408.358 413.657 408.977C413.912 409.596 414.287 410.159 414.76 410.633C415.234 411.107 415.796 411.484 416.414 411.74C417.033 411.997 417.696 412.129 418.366 412.129H479.349V398.367Z" fill="white"/>
<path d="M527.918 319.807L519.971 388.784C519.676 391.43 518.416 393.874 516.433 395.651C514.45 397.427 511.882 398.411 509.22 398.416H466.719C466.049 398.416 465.385 398.548 464.767 398.804C464.148 399.061 463.586 399.437 463.113 399.912C462.64 400.386 462.265 400.949 462.01 401.568C461.755 402.187 461.624 402.851 461.626 403.521V407.072C461.624 407.742 461.755 408.406 462.01 409.025C462.265 409.644 462.64 410.207 463.113 410.681C463.586 411.156 464.148 411.532 464.767 411.789C465.385 412.045 466.049 412.177 466.719 412.177H518.178C520.865 412.176 523.455 411.176 525.447 409.371C527.438 407.567 528.688 405.087 528.953 402.413L537.61 314.834H533.553C532.168 314.832 530.831 315.337 529.793 316.253C528.755 317.169 528.088 318.433 527.918 319.807Z" fill="#263238"/>
<path opacity="0.3" d="M527.918 319.807L519.971 388.784C519.676 391.43 518.416 393.874 516.433 395.651C514.45 397.427 511.882 398.411 509.22 398.416H466.719C466.049 398.416 465.385 398.548 464.767 398.804C464.148 399.061 463.586 399.437 463.113 399.912C462.64 400.386 462.265 400.949 462.01 401.568C461.755 402.187 461.624 402.851 461.626 403.521V407.072C461.624 407.742 461.755 408.406 462.01 409.025C462.265 409.644 462.64 410.207 463.113 410.681C463.586 411.156 464.148 411.532 464.767 411.789C465.385 412.045 466.049 412.177 466.719 412.177H518.178C520.865 412.176 523.455 411.176 525.447 409.371C527.438 407.567 528.688 405.087 528.953 402.413L537.61 314.834H533.553C532.168 314.832 530.831 315.337 529.793 316.253C528.755 317.169 528.088 318.433 527.918 319.807Z" fill="white"/>
<path d="M428.949 464.901L429.816 481.01L420.798 481.708L418.547 466.406L428.949 464.901Z" fill="#FF8B7B"/>
<path d="M416.897 482.611C415.927 482.777 414.93 482.584 414.092 482.07C413.992 481.926 413.939 481.756 413.939 481.582C413.939 481.408 413.992 481.237 414.092 481.094C414.237 480.827 414.478 480.625 414.766 480.528C416.307 479.999 419.702 481.66 419.859 481.732C419.9 481.75 419.934 481.781 419.956 481.82C419.977 481.86 419.986 481.905 419.979 481.949C419.974 481.994 419.954 482.037 419.924 482.071C419.894 482.106 419.855 482.13 419.811 482.142C418.855 482.385 417.88 482.542 416.897 482.611ZM415.296 480.878C415.152 480.876 415.009 480.901 414.874 480.95C414.782 480.971 414.696 481.014 414.623 481.075C414.549 481.135 414.491 481.212 414.453 481.299C414.308 481.576 414.369 481.708 414.453 481.781C414.922 482.371 417.294 482.238 419.028 481.901C417.862 481.322 416.594 480.975 415.296 480.878Z" fill="#2E4BB7"/>
<path d="M419.726 482.154C419.695 482.166 419.661 482.166 419.63 482.154C418.426 481.732 416.09 479.83 416.223 478.759C416.223 478.506 416.403 478.181 417.005 478.084C417.43 478.028 417.861 478.135 418.209 478.385C419.474 479.288 419.883 481.817 419.907 481.925C419.912 481.965 419.908 482.006 419.893 482.044C419.878 482.082 419.854 482.116 419.823 482.142C419.792 482.152 419.759 482.156 419.726 482.154ZM417.186 478.542H417.054C416.656 478.602 416.644 478.759 416.632 478.819C416.632 479.457 418.197 480.962 419.401 481.576C419.223 480.516 418.723 479.536 417.969 478.771C417.742 478.606 417.466 478.525 417.186 478.542Z" fill="#2E4BB7"/>
<path d="M420.641 480.781L430.9 480.131C431.087 480.121 431.273 480.175 431.426 480.285C431.579 480.394 431.691 480.552 431.742 480.733L434.15 488.956C434.202 489.129 434.219 489.311 434.201 489.491C434.182 489.671 434.128 489.845 434.042 490.004C433.956 490.163 433.839 490.303 433.699 490.417C433.558 490.53 433.397 490.615 433.223 490.666C433.13 490.698 433.033 490.718 432.934 490.726C429.238 490.895 425.927 490.895 421.328 491.196C415.898 491.545 417.318 492.099 410.937 492.592C407.084 492.893 406.121 488.559 407.723 488.246C415.139 486.825 415.765 484.526 418.474 481.672C419.067 481.126 419.836 480.81 420.641 480.781Z" fill="#263238"/>
<path opacity="0.2" d="M418.547 466.406L419.666 474.039L429.407 473.329L428.949 464.901L418.547 466.406Z" fill="#263238"/>
<path d="M466.562 364.282C466.562 364.282 415.681 371.699 408.854 388.362C402.028 405.026 416.813 467.405 416.813 467.405L430.731 466.201C430.731 466.201 430.623 427.853 427.805 399.295L466.562 397.404L502.128 361.2L466.562 364.282Z" fill="#2E4BB7"/>
<path opacity="0.5" d="M466.562 364.282C466.562 364.282 415.681 371.699 408.854 388.362C402.028 405.026 416.813 467.405 416.813 467.405L430.731 466.201C430.731 466.201 430.623 427.853 427.805 399.295L466.562 397.404L502.128 361.2L466.562 364.282Z" fill="black"/>
<path d="M415.862 466.622L431.61 464.901V469.223L416.728 470.523L415.862 466.622Z" fill="#2E4BB7"/>
<path d="M463.528 466.707L464.395 482.828L455.377 483.514L453.125 468.212L463.528 466.707Z" fill="#FF8B7B"/>
<path d="M451.5 484.417C450.526 484.589 449.523 484.396 448.683 483.876C448.583 483.732 448.53 483.562 448.53 483.388C448.53 483.214 448.583 483.043 448.683 482.9C448.825 482.636 449.061 482.434 449.345 482.334C450.886 481.805 454.281 483.478 454.438 483.538C454.48 483.559 454.514 483.592 454.536 483.633C454.557 483.674 454.565 483.721 454.558 483.767C454.55 483.811 454.53 483.853 454.5 483.886C454.47 483.92 454.432 483.946 454.39 483.96C453.441 484.192 452.474 484.345 451.5 484.417ZM449.887 482.684C449.742 482.686 449.6 482.715 449.465 482.768C449.374 482.787 449.288 482.828 449.215 482.887C449.141 482.945 449.083 483.02 449.044 483.105C448.899 483.394 448.96 483.526 449.044 483.587C449.513 484.177 451.885 484.044 453.631 483.719C452.456 483.139 451.181 482.788 449.875 482.684H449.887Z" fill="#2E4BB7"/>
<path d="M454.305 484.008H454.209C453.005 483.587 450.669 481.684 450.802 480.625C450.802 480.36 450.982 480.047 451.596 479.938C451.816 479.903 452.041 479.912 452.258 479.963C452.475 480.015 452.68 480.109 452.861 480.239C454.065 481.154 454.522 483.671 454.546 483.791C454.551 483.83 454.545 483.869 454.53 483.904C454.516 483.94 454.492 483.972 454.462 483.996C454.412 484.017 454.357 484.022 454.305 484.008ZM451.765 480.396H451.644C451.235 480.456 451.223 480.625 451.211 480.685C451.211 481.323 452.776 482.816 453.98 483.442C453.809 482.382 453.312 481.402 452.56 480.637C452.33 480.469 452.048 480.388 451.765 480.408V480.396Z" fill="#2E4BB7"/>
<path d="M455.22 482.587L465.478 481.937C465.666 481.927 465.852 481.981 466.005 482.091C466.158 482.2 466.27 482.358 466.321 482.539L468.729 490.762C468.834 491.114 468.795 491.492 468.622 491.815C468.448 492.138 468.153 492.378 467.802 492.484H467.513C463.817 492.653 460.518 492.653 455.907 492.954C450.477 493.303 451.897 493.869 445.516 494.362C441.663 494.651 440.7 490.317 442.301 490.004C449.718 488.595 450.344 486.283 453.065 483.43C453.659 482.899 454.424 482.6 455.22 482.587Z" fill="#263238"/>
<path opacity="0.2" d="M464.01 475.652L463.528 466.707L453.125 468.212L454.317 476.314L464.01 475.652Z" fill="#263238"/>
<path d="M515.408 363.524C515.408 363.524 526.016 398.03 504.789 398.789C483.563 399.547 455.485 398.789 455.485 398.789C455.485 398.789 465.382 425.999 465.418 469.704L452.078 470.836C452.078 470.836 429.647 396.935 435.017 387.038C442.241 373.794 492.267 363.524 492.267 363.524H515.408Z" fill="#2E4BB7"/>
<path opacity="0.4" d="M515.408 363.524C515.408 363.524 526.016 398.03 504.789 398.789C483.563 399.547 455.485 398.789 455.485 398.789C455.485 398.789 465.382 425.999 465.418 469.704L452.078 470.836C452.078 470.836 429.647 396.935 435.017 387.038C442.241 373.794 492.267 363.524 492.267 363.524H515.408Z" fill="black"/>
<path d="M450.525 469.042L451.596 473.304L466.49 472.052V467.947L450.525 469.042Z" fill="#2E4BB7"/>
<path d="M482.021 281.026C482.021 281.026 469.042 278.196 463.058 297.882C459.446 309.621 460.097 325.682 460.097 325.682L438.629 326.103L435.968 334.82C435.968 334.82 463.66 335.194 470.884 334.254C478.108 333.315 482.021 281.026 482.021 281.026Z" fill="#2E4BB7"/>
<path d="M467.622 363.957C467.622 363.957 460.795 278.208 481.66 278.208H511.616C518.84 278.208 522.993 288.069 521.476 305.9C519.959 323.731 518.442 367.714 518.442 367.714L467.622 363.957Z" fill="#2E4BB7"/>
<path opacity="0.2" d="M467.622 363.957C467.622 363.957 460.795 278.208 481.66 278.208H511.616C518.84 278.208 522.993 288.069 521.476 305.9C519.959 323.731 518.442 367.714 518.442 367.714L467.622 363.957Z" fill="white"/>
<path d="M434.981 324.237L437.389 324.55C437.915 324.618 438.418 324.804 438.862 325.094C439.306 325.384 439.679 325.77 439.954 326.224L443.337 331.883C443.61 332.331 443.79 332.829 443.867 333.348C443.943 333.867 443.915 334.397 443.782 334.905L443.241 337.036C443.1 337.59 442.841 338.108 442.482 338.553C442.123 338.998 441.672 339.361 441.16 339.616C440.648 339.871 440.086 340.012 439.515 340.03C438.943 340.048 438.374 339.943 437.847 339.721L433.885 338.047C433.166 337.745 432.515 337.301 431.973 336.74C431.431 336.179 431.008 335.513 430.731 334.784L429.744 332.22C429.418 331.317 429.418 330.329 429.744 329.426L430.574 327.018C430.874 326.116 431.476 325.346 432.28 324.839C433.084 324.332 434.038 324.119 434.981 324.237Z" fill="#CE7A63"/>
<path d="M436.739 325.754L444.132 342.815L455.509 347.173L470.68 339.6L470.595 322.347L462.781 321.203L456.316 324.37L452.812 327.741L448.213 321.913L442.241 321.203L438.4 322.913L436.739 325.754Z" fill="#2E4BB7"/>
<path opacity="0.1" d="M436.739 325.754L444.132 342.815L455.509 347.173L470.68 339.6L470.595 322.347L462.781 321.203L456.316 324.37L452.812 327.741L448.213 321.913L442.241 321.203L438.4 322.913L436.739 325.754Z" fill="black"/>
<path opacity="0.2" d="M457.604 346.126L455.244 325.393L452.812 327.741L449.634 323.719L453.475 346.403L455.509 347.173L457.604 346.126Z" fill="black"/>
<path d="M436.173 322.913C436.173 322.913 446.6 312.294 453.029 325.754C453.029 325.754 463.865 313.052 470.583 322.347L469.717 325.754C469.717 325.754 466.225 317.326 452.8 329.8C452.8 329.8 446.022 316.652 436.727 325.754L436.173 322.913Z" fill="#2E4BB7"/>
<path opacity="0.8" d="M436.173 322.913C436.173 322.913 446.6 312.294 453.029 325.754C453.029 325.754 463.865 313.052 470.583 322.347L469.717 325.754C469.717 325.754 466.225 317.326 452.8 329.8C452.8 329.8 446.022 316.652 436.727 325.754L436.173 322.913Z" fill="white"/>
<path d="M490.233 327.259H478.783L475.773 324.466C475.138 323.87 474.368 323.438 473.529 323.205C472.69 322.972 471.808 322.946 470.957 323.13L469.56 323.419C468.626 323.612 467.656 323.55 466.755 323.238C465.685 322.88 464.531 322.864 463.453 323.192C462.374 323.52 461.424 324.176 460.735 325.068L460.518 325.357C459.835 326.246 459.447 327.325 459.406 328.445C459.365 329.565 459.674 330.669 460.289 331.606L463.179 336C463.793 336.958 464.694 337.698 465.753 338.115C466.812 338.532 467.976 338.605 469.078 338.324L477.157 336.277L490.943 338.131L490.233 327.259Z" fill="#CE7A63"/>
<path d="M509.713 299.062C508.822 293.68 505.162 278.208 515.023 278.208C524.884 278.208 526.497 293.379 527.063 302.758C527.629 312.137 529.375 340.828 522.813 340.852C516.251 340.876 488.102 338.601 488.102 338.601L488.391 326.079L513.133 324.093C513.133 324.093 510.845 305.888 509.713 299.062Z" fill="#2E4BB7"/>
<path opacity="0.3" d="M509.713 299.062C508.822 293.68 505.162 278.208 515.023 278.208C524.884 278.208 526.497 293.379 527.063 302.758C527.629 312.137 529.375 340.828 522.813 340.852C516.251 340.876 488.102 338.601 488.102 338.601L488.391 326.079L513.133 324.093C513.133 324.093 510.845 305.888 509.713 299.062Z" fill="white"/>
<path d="M483.538 278.666L483.719 279.436L489.98 283.422L502.14 278.822L502.297 278.714C497.601 273.97 499.359 265.265 500.924 258.246L495.085 263.062L487.126 269.696C487.373 270.763 487.554 271.845 487.668 272.935C488.041 276.402 487.09 277.582 483.538 278.666Z" fill="#CE7A63"/>
<path d="M476.314 244.231C476.314 244.231 469.536 248.783 471.209 251.564C473.918 256.055 477.747 248.506 477.747 248.506L476.314 244.231Z" fill="#263238"/>
<path opacity="0.2" d="M497.938 269.491C498.153 268.097 498.193 266.682 498.059 265.277L487.463 271.442C487.536 271.947 487.608 272.453 487.668 272.971C487.851 274.015 487.764 275.088 487.415 276.089C491.316 275.716 496.782 273.308 497.938 269.491Z" fill="black"/>
<path d="M500.334 247.47C501.538 257.03 502.742 262.532 498.877 268.396C493.134 277.197 480.817 275.367 476.808 266.421C473.196 258.39 471.896 244.123 480.336 238.404C482.149 237.123 484.265 236.339 486.475 236.13C488.684 235.92 490.911 236.292 492.932 237.208C494.954 238.125 496.7 239.554 497.999 241.354C499.297 243.154 500.102 245.263 500.334 247.47Z" fill="#CE7A63"/>
<path d="M486.524 255.717C486.669 256.5 486.38 257.198 485.886 257.307C485.393 257.415 484.863 256.885 484.682 256.103C484.502 255.32 484.827 254.634 485.32 254.526C485.814 254.417 486.416 254.959 486.524 255.717Z" fill="#263238"/>
<path d="M477.567 257.427C477.711 258.186 477.422 258.908 476.916 259.004C476.411 259.101 475.905 258.583 475.712 257.8C475.52 257.018 475.857 256.32 476.351 256.211C476.844 256.103 477.422 256.657 477.567 257.427Z" fill="#263238"/>
<path d="M481.07 254.899C480.65 257.078 479.984 259.203 479.084 261.232C479.611 261.464 480.181 261.584 480.757 261.584C481.333 261.584 481.903 261.464 482.431 261.232L481.07 254.899Z" fill="#BA4D3C"/>
<path d="M488.511 250.071C488.585 250.071 488.658 250.045 488.716 249.999C488.812 249.933 488.879 249.831 488.902 249.716C488.924 249.601 488.901 249.482 488.836 249.384C488.43 248.802 487.89 248.325 487.261 247.994C486.633 247.663 485.934 247.487 485.224 247.482C485.105 247.491 484.994 247.547 484.915 247.637C484.836 247.727 484.796 247.844 484.803 247.964C484.806 248.024 484.821 248.083 484.847 248.137C484.872 248.191 484.909 248.24 484.954 248.28C484.998 248.321 485.05 248.352 485.107 248.372C485.164 248.392 485.224 248.4 485.284 248.397C485.851 248.391 486.41 248.525 486.912 248.788C487.414 249.05 487.844 249.433 488.162 249.902C488.201 249.958 488.253 250.002 488.314 250.032C488.376 250.061 488.443 250.075 488.511 250.071Z" fill="#263238"/>
<path d="M473.389 252.045C473.463 252.039 473.535 252.016 473.598 251.976C473.661 251.936 473.713 251.881 473.75 251.817C474.026 251.304 474.416 250.862 474.89 250.524C475.364 250.185 475.909 249.96 476.483 249.866C476.605 249.857 476.719 249.8 476.8 249.708C476.881 249.615 476.923 249.495 476.916 249.372C476.901 249.253 476.843 249.144 476.751 249.066C476.66 248.988 476.543 248.947 476.423 248.951C475.699 249.051 475.01 249.321 474.411 249.74C473.812 250.159 473.322 250.714 472.979 251.359C472.933 251.428 472.907 251.509 472.904 251.592C472.902 251.675 472.924 251.757 472.967 251.828C473.01 251.899 473.073 251.956 473.148 251.992C473.223 252.029 473.306 252.043 473.389 252.033V252.045Z" fill="#263238"/>
<path d="M487.969 263.387C488.338 263.02 488.669 262.617 488.956 262.183C488.977 262.156 488.992 262.124 489 262.091C489.008 262.058 489.009 262.023 489.004 261.99C488.998 261.956 488.986 261.924 488.967 261.895C488.949 261.866 488.925 261.841 488.896 261.822C488.868 261.801 488.836 261.786 488.801 261.778C488.767 261.769 488.732 261.768 488.697 261.774C488.662 261.779 488.629 261.792 488.599 261.81C488.569 261.829 488.543 261.853 488.523 261.882C487.893 262.824 487.051 263.605 486.064 264.161C485.076 264.718 483.972 265.034 482.84 265.085C482.804 265.083 482.767 265.089 482.733 265.101C482.699 265.114 482.668 265.133 482.641 265.157C482.614 265.182 482.592 265.211 482.577 265.244C482.561 265.277 482.553 265.313 482.551 265.35C482.551 265.421 482.579 265.49 482.628 265.541C482.677 265.593 482.745 265.623 482.816 265.626C484.758 265.57 486.603 264.768 487.969 263.387Z" fill="#263238"/>
<path d="M496.445 233.576C496.445 233.576 498.396 222.74 493.809 223.173C489.221 223.607 496.445 233.576 496.445 233.576Z" fill="#263238"/>
<path d="M490.293 251.419C489.732 250.723 488.976 250.209 488.121 249.945C487.266 249.681 486.352 249.678 485.496 249.937C484.64 250.195 483.88 250.704 483.315 251.397C482.749 252.09 482.404 252.936 482.322 253.827L479.854 254.429C479.45 253.381 478.668 252.521 477.663 252.019C476.657 251.517 475.5 251.41 474.419 251.718C473.338 252.025 472.411 252.726 471.821 253.683C471.23 254.639 471.019 255.782 471.228 256.886C471.437 257.991 472.052 258.977 472.951 259.651C473.85 260.325 474.969 260.639 476.088 260.53C477.207 260.421 478.244 259.898 478.997 259.063C479.749 258.229 480.163 257.143 480.155 256.019C480.166 255.882 480.166 255.745 480.155 255.609L482.395 255.067C482.494 255.706 482.729 256.316 483.083 256.856C483.438 257.396 483.904 257.854 484.451 258.199C484.997 258.544 485.611 258.769 486.251 258.857C486.891 258.945 487.543 258.895 488.162 258.71C488.781 258.525 489.354 258.21 489.841 257.786C490.328 257.361 490.719 256.837 490.987 256.249C491.255 255.661 491.394 255.023 491.395 254.377C491.396 253.73 491.258 253.091 490.991 252.503C495.554 250.721 502.008 248.734 503.236 249.505L503.886 248.482C501.695 247.085 492.918 250.432 490.293 251.419ZM475.58 259.293C474.922 259.296 474.279 259.103 473.731 258.739C473.182 258.376 472.755 257.857 472.501 257.25C472.248 256.643 472.18 255.975 472.307 255.33C472.434 254.684 472.75 254.091 473.214 253.625C473.678 253.159 474.27 252.841 474.915 252.712C475.56 252.583 476.229 252.648 476.837 252.899C477.445 253.15 477.964 253.576 478.33 254.123C478.696 254.67 478.891 255.313 478.891 255.97C478.888 256.849 478.538 257.69 477.918 258.312C477.299 258.935 476.458 259.287 475.58 259.293ZM486.753 257.584C486.095 257.586 485.451 257.393 484.902 257.029C484.354 256.665 483.926 256.146 483.673 255.538C483.42 254.93 483.353 254.261 483.481 253.615C483.609 252.97 483.926 252.376 484.391 251.911C484.857 251.446 485.45 251.129 486.096 251.001C486.741 250.873 487.411 250.94 488.018 251.193C488.626 251.446 489.145 251.874 489.509 252.422C489.873 252.97 490.066 253.615 490.064 254.273C490.061 255.142 489.718 255.975 489.108 256.594C488.498 257.213 487.67 257.568 486.801 257.584H486.753Z" fill="#263238"/>
<path opacity="0.2" d="M490.293 251.419C489.732 250.723 488.976 250.209 488.121 249.945C487.266 249.681 486.352 249.678 485.496 249.937C484.64 250.195 483.88 250.704 483.315 251.397C482.749 252.09 482.404 252.936 482.322 253.827L479.854 254.429C479.45 253.381 478.668 252.521 477.663 252.019C476.657 251.517 475.5 251.41 474.419 251.718C473.338 252.025 472.411 252.726 471.821 253.683C471.23 254.639 471.019 255.782 471.228 256.886C471.437 257.991 472.052 258.977 472.951 259.651C473.85 260.325 474.969 260.639 476.088 260.53C477.207 260.421 478.244 259.898 478.997 259.063C479.749 258.229 480.163 257.143 480.155 256.019C480.166 255.882 480.166 255.745 480.155 255.609L482.395 255.067C482.494 255.706 482.729 256.316 483.083 256.856C483.438 257.396 483.904 257.854 484.451 258.199C484.997 258.544 485.611 258.769 486.251 258.857C486.891 258.945 487.543 258.895 488.162 258.71C488.781 258.525 489.354 258.21 489.841 257.786C490.328 257.361 490.719 256.837 490.987 256.249C491.255 255.661 491.394 255.023 491.395 254.377C491.396 253.73 491.258 253.091 490.991 252.503C495.554 250.721 502.008 248.734 503.236 249.505L503.886 248.482C501.695 247.085 492.918 250.432 490.293 251.419ZM475.58 259.293C474.922 259.296 474.279 259.103 473.731 258.739C473.182 258.376 472.755 257.857 472.501 257.25C472.248 256.643 472.18 255.975 472.307 255.33C472.434 254.684 472.75 254.091 473.214 253.625C473.678 253.159 474.27 252.841 474.915 252.712C475.56 252.583 476.229 252.648 476.837 252.899C477.445 253.15 477.964 253.576 478.33 254.123C478.696 254.67 478.891 255.313 478.891 255.97C478.888 256.849 478.538 257.69 477.918 258.312C477.299 258.935 476.458 259.287 475.58 259.293ZM486.753 257.584C486.095 257.586 485.451 257.393 484.902 257.029C484.354 256.665 483.926 256.146 483.673 255.538C483.42 254.93 483.353 254.261 483.481 253.615C483.609 252.97 483.926 252.376 484.391 251.911C484.857 251.446 485.45 251.129 486.096 251.001C486.741 250.873 487.411 250.94 488.018 251.193C488.626 251.446 489.145 251.874 489.509 252.422C489.873 252.97 490.066 253.615 490.064 254.273C490.061 255.142 489.718 255.975 489.108 256.594C488.498 257.213 487.67 257.568 486.801 257.584H486.753Z" fill="white"/>
<path d="M487.764 240.102C487.764 240.102 472.63 250.793 469.403 246.35C466.177 241.908 472.907 241.534 472.907 241.534C472.907 241.534 467.176 237.501 470.21 234.31C473.244 231.12 476.916 234.31 476.916 234.31C476.916 234.31 490.811 222.21 495.542 231.288C495.542 231.288 506.077 229.193 506.812 237.706C507.546 246.218 506.812 247.53 506.812 247.53C506.812 247.53 512.386 248.217 511.628 250.155C510.869 252.094 506.812 250.576 506.812 250.576C506.812 250.576 513.398 255.561 510.424 256.247C507.45 256.934 499.696 255.296 497.794 248.843C495.892 242.389 498.107 241.51 498.107 241.51C498.107 241.51 479.975 248.975 487.764 240.102Z" fill="#263238"/>
<path d="M505.596 255.513C505.069 257.835 503.749 259.9 501.863 261.352C499.455 263.134 497.613 260.979 497.746 257.933C497.866 255.2 499.275 250.974 501.948 250.42C504.62 249.866 506.246 252.599 505.596 255.513Z" fill="#CE7A63"/>
<path d="M484.851 278.208C484.851 278.208 483.707 281.339 490.1 281.435C496.493 281.531 502.393 277.642 502.393 277.642C502.393 277.642 504.958 276.788 505.74 278.208C505.74 278.208 499.166 284.565 490.088 284.373C481.01 284.18 482.419 278.088 482.419 278.088C482.419 278.088 484.08 277.642 484.851 278.208Z" fill="#2E4BB7"/>
<path d="M276.462 124.987H129.538V495.157H276.462V124.987Z" fill="#2E4BB7"/>
<path opacity="0.2" d="M276.462 124.987H129.538V495.157H276.462V124.987Z" fill="white"/>
<path d="M276.462 121.748V498.456H303.528V121.748H276.462Z" fill="#2E4BB7"/>
<path opacity="0.3" d="M276.462 121.748V498.456H303.528V121.748H276.462Z" fill="white"/>
<path d="M103.773 121.748V498.456H130.839V121.748H103.773Z" fill="#2E4BB7"/>
<path opacity="0.4" d="M103.773 121.748V498.456H130.839V121.748H103.773Z" fill="white"/>
<path d="M99.1735 121.748V498.456H279.773V121.748H99.1735ZM273.212 128.238V195.782H105.663V128.238H273.212ZM105.663 343.838V276.306H273.212V343.838H105.663ZM273.212 350.364V417.896H105.663V350.364H273.212ZM105.663 269.816V202.272H273.212V269.816H105.663ZM105.663 491.906V424.374H273.212V491.906H105.663Z" fill="#2E4BB7"/>
<path opacity="0.6" d="M99.1735 121.748V498.456H279.773V121.748H99.1735ZM273.212 128.238V195.782H105.663V128.238H273.212ZM105.663 343.838V276.306H273.212V343.838H105.663ZM273.212 350.364V417.896H105.663V350.364H273.212ZM105.663 269.816V202.272H273.212V269.816H105.663ZM105.663 491.906V424.374H273.212V491.906H105.663Z" fill="white"/>
<path d="M211.663 195.782H217.912V143.372H211.663V195.782Z" fill="#2E4BB7"/>
<path opacity="0.1" d="M211.663 195.782H217.912V143.372H211.663V195.782Z" fill="white"/>
<path d="M217.912 195.782H224.161V143.372H217.912V195.782Z" fill="#2E4BB7"/>
<path opacity="0.4" d="M217.912 195.782H224.161V143.372H217.912V195.782Z" fill="white"/>
<path d="M199.19 195.77H211.675V147.045H199.19V195.77Z" fill="#2E4BB7"/>
<path opacity="0.6" d="M199.19 195.77H211.675V147.045H199.19V195.77Z" fill="white"/>
<path d="M184.874 195.782H192.941V143.372H184.874V195.782Z" fill="#2E4BB7"/>
<path d="M192.929 195.782H199.178V143.372H192.929V195.782Z" fill="#2E4BB7"/>
<path opacity="0.7" d="M192.929 195.782H199.178V143.372H192.929V195.782Z" fill="white"/>
<path d="M137.509 195.782H145.576V143.372H137.509V195.782Z" fill="#2E4BB7"/>
<path opacity="0.7" d="M137.509 195.782H145.576V143.372H137.509V195.782Z" fill="white"/>
<path d="M145.564 195.782H151.812V143.372H145.564V195.782Z" fill="#2E4BB7"/>
<path opacity="0.6" d="M145.564 195.782H151.812V143.372H145.564V195.782Z" fill="white"/>
<path d="M164.31 195.782H172.377V143.372H164.31V195.782Z" fill="#2E4BB7"/>
<path opacity="0.6" d="M164.31 195.782H172.377V143.372H164.31V195.782Z" fill="white"/>
<path d="M172.377 195.782H178.625V143.372H172.377V195.782Z" fill="#2E4BB7"/>
<path opacity="0.1" d="M172.377 195.782H178.625V143.372H172.377V195.782Z" fill="black"/>
<path d="M125.011 195.782H137.497V144.612H125.011V195.782Z" fill="#2E4BB7"/>
<path opacity="0.1" d="M125.011 195.782H137.497V144.612H125.011V195.782Z" fill="white"/>
<path d="M118.763 195.782H125.011V144.612H118.763V195.782Z" fill="#2E4BB7"/>
<path opacity="0.6" d="M118.763 195.782H125.011V144.612H118.763V195.782Z" fill="white"/>
<path d="M155.978 195.782H164.31V144.612H155.978V195.782Z" fill="#2E4BB7"/>
<path opacity="0.1" d="M155.978 195.782H164.31V144.612H155.978V195.782Z" fill="white"/>
<path d="M151.812 195.782H155.978V144.612H151.812V195.782Z" fill="#2E4BB7"/>
<path opacity="0.3" d="M151.812 195.782H155.978V144.612H151.812V195.782Z" fill="white"/>
<path d="M172.377 195.77H184.862V147.045H172.377V195.77Z" fill="#2E4BB7"/>
<path opacity="0.1" d="M172.377 195.77H184.862V147.045H172.377V195.77Z" fill="white"/>
<path d="M242.895 195.782H250.962V143.372H242.895V195.782Z" fill="#2E4BB7"/>
<path opacity="0.3" d="M242.895 195.782H250.962V143.372H242.895V195.782Z" fill="white"/>
<path d="M250.962 195.782H257.211V143.372H250.962V195.782Z" fill="#2E4BB7"/>
<path opacity="0.2" d="M250.962 195.782H257.211V143.372H250.962V195.782Z" fill="white"/>
<path d="M230.409 195.782H242.895V144.612H230.409V195.782Z" fill="#2E4BB7"/>
<path opacity="0.1" d="M230.409 195.782H242.895V144.612H230.409V195.782Z" fill="white"/>
<path d="M224.161 195.782H230.409V144.612H224.161V195.782Z" fill="#2E4BB7"/>
<path opacity="0.6" d="M224.161 195.782H230.409V144.612H224.161V195.782Z" fill="white"/>
<path d="M261.364 195.782H269.696V144.612H261.364V195.782Z" fill="#2E4BB7"/>
<path opacity="0.1" d="M261.364 195.782H269.696V144.612H261.364V195.782Z" fill="white"/>
<path d="M257.211 195.782H261.376V144.612H257.211V195.782Z" fill="#2E4BB7"/>
<path opacity="0.6" d="M257.211 195.782H261.376V144.612H257.211V195.782Z" fill="white"/>
<path d="M178.938 217.575H172.846V269.828H178.938V217.575Z" fill="#2E4BB7"/>
<path opacity="0.1" d="M178.938 217.575H172.846V269.828H178.938V217.575Z" fill="white"/>
<path d="M172.834 217.575H166.742V269.828H172.834V217.575Z" fill="#2E4BB7"/>
<path opacity="0.4" d="M172.834 217.575H166.742V269.828H172.834V217.575Z" fill="white"/>
<path d="M191.135 221.247H178.938V269.828H191.135V221.247Z" fill="#2E4BB7"/>
<path opacity="0.6" d="M191.135 221.247H178.938V269.828H191.135V221.247Z" fill="white"/>
<path d="M205.101 217.575H197.227V269.828H205.101V217.575Z" fill="#2E4BB7"/>
<path d="M197.227 217.575H191.135V269.828H197.227V217.575Z" fill="#2E4BB7"/>
<path opacity="0.1" d="M197.227 217.575H191.135V269.828H197.227V217.575Z" fill="black"/>
<path d="M251.347 217.575H243.473V269.828H251.347V217.575Z" fill="#2E4BB7"/>
<path opacity="0.1" d="M251.347 217.575H243.473V269.828H251.347V217.575Z" fill="black"/>
<path d="M243.473 217.575H237.381V269.828H243.473V217.575Z" fill="#2E4BB7"/>
<path opacity="0.6" d="M243.473 217.575H237.381V269.828H243.473V217.575Z" fill="white"/>
<path d="M225.172 217.575H217.298V269.828H225.172V217.575Z" fill="#2E4BB7"/>
<path opacity="0.6" d="M225.172 217.575H217.298V269.828H225.172V217.575Z" fill="white"/>
<path d="M217.298 217.575H211.206V269.828H217.298V217.575Z" fill="#2E4BB7"/>
<path opacity="0.1" d="M217.298 217.575H211.206V269.828H217.298V217.575Z" fill="black"/>
<path d="M263.544 218.815H251.347V269.828H263.544V218.815Z" fill="#2E4BB7"/>
<path opacity="0.1" d="M263.544 218.815H251.347V269.828H263.544V218.815Z" fill="white"/>
<path d="M269.636 218.815H263.544V269.828H269.636V218.815Z" fill="#2E4BB7"/>
<path opacity="0.6" d="M269.636 218.815H263.544V269.828H269.636V218.815Z" fill="white"/>
<path d="M233.311 218.815H225.184V269.828H233.311V218.815Z" fill="#2E4BB7"/>
<path opacity="0.1" d="M233.311 218.815H225.184V269.828H233.311V218.815Z" fill="white"/>
<path d="M237.381 218.815H233.311V269.828H237.381V218.815Z" fill="#2E4BB7"/>
<path opacity="0.3" d="M237.381 218.815H233.311V269.828H237.381V218.815Z" fill="white"/>
<path d="M217.31 221.247H205.113V269.828H217.31V221.247Z" fill="#2E4BB7"/>
<path opacity="0.1" d="M217.31 221.247H205.113V269.828H217.31V221.247Z" fill="white"/>
<path d="M148.453 217.575H140.579V269.828H148.453V217.575Z" fill="#2E4BB7"/>
<path opacity="0.1" d="M148.453 217.575H140.579V269.828H148.453V217.575Z" fill="white"/>
<path d="M140.567 217.575H134.475V269.828H140.567V217.575Z" fill="#2E4BB7"/>
<path opacity="0.2" d="M140.567 217.575H134.475V269.828H140.567V217.575Z" fill="white"/>
<path d="M160.65 218.815H148.453V269.828H160.65V218.815Z" fill="#2E4BB7"/>
<path opacity="0.1" d="M160.65 218.815H148.453V269.828H160.65V218.815Z" fill="white"/>
<path d="M166.742 218.815H160.65V269.828H166.742V218.815Z" fill="#2E4BB7"/>
<path opacity="0.6" d="M166.742 218.815H160.65V269.828H166.742V218.815Z" fill="white"/>
<path d="M130.417 218.815H122.29V269.828H130.417V218.815Z" fill="#2E4BB7"/>
<path opacity="0.1" d="M130.417 218.815H122.29V269.828H130.417V218.815Z" fill="white"/>
<path d="M134.487 218.815H130.417V269.828H134.487V218.815Z" fill="#2E4BB7"/>
<path opacity="0.6" d="M134.487 218.815H130.417V269.828H134.487V218.815Z" fill="white"/>
<path d="M212.951 417.884H219.044V366.148H212.951V417.884Z" fill="#2E4BB7"/>
<path opacity="0.1" d="M212.951 417.884H219.044V366.148H212.951V417.884Z" fill="white"/>
<path d="M219.056 417.884H225.148V366.148H219.056V417.884Z" fill="#2E4BB7"/>
<path opacity="0.4" d="M219.056 417.884H225.148V366.148H219.056V417.884Z" fill="white"/>
<path d="M200.755 417.884H212.951V369.784H200.755V417.884Z" fill="#2E4BB7"/>
<path opacity="0.6" d="M200.755 417.884H212.951V369.784H200.755V417.884Z" fill="white"/>
<path d="M186.789 417.884H194.663V366.148H186.789V417.884Z" fill="#2E4BB7"/>
<path d="M194.663 417.884H200.755V366.148H194.663V417.884Z" fill="#2E4BB7"/>
<path opacity="0.6" d="M194.663 417.884H200.755V366.148H194.663V417.884Z" fill="white"/>
<path d="M140.543 417.884H148.417V366.148H140.543V417.884Z" fill="#2E4BB7"/>
<path opacity="0.3" d="M140.543 417.884H148.417V366.148H140.543V417.884Z" fill="white"/>
<path d="M148.417 417.884H154.509V366.148H148.417V417.884Z" fill="#2E4BB7"/>
<path opacity="0.6" d="M148.417 417.884H154.509V366.148H148.417V417.884Z" fill="white"/>
<path d="M166.706 417.884H174.58V366.148H166.706V417.884Z" fill="#2E4BB7"/>
<path opacity="0.6" d="M166.706 417.884H174.58V366.148H166.706V417.884Z" fill="white"/>
<path d="M174.592 417.884H180.684V366.148H174.592V417.884Z" fill="#2E4BB7"/>
<path opacity="0.1" d="M174.592 417.884H180.684V366.148H174.592V417.884Z" fill="black"/>
<path d="M128.334 417.884H140.531V367.364H128.334V417.884Z" fill="#2E4BB7"/>
<path opacity="0.1" d="M128.334 417.884H140.531V367.364H128.334V417.884Z" fill="white"/>
<path d="M122.254 417.884H128.346V367.364H122.254V417.884Z" fill="#2E4BB7"/>
<path opacity="0.6" d="M122.254 417.884H128.346V367.364H122.254V417.884Z" fill="white"/>
<path d="M158.579 417.884H166.706V367.364H158.579V417.884Z" fill="#2E4BB7"/>
<path opacity="0.1" d="M158.579 417.884H166.706V367.364H158.579V417.884Z" fill="white"/>
<path d="M154.509 417.884H158.579V367.364H154.509V417.884Z" fill="#2E4BB7"/>
<path opacity="0.3" d="M154.509 417.884H158.579V367.364H154.509V417.884Z" fill="white"/>
<path d="M174.592 417.884H186.789V369.784H174.592V417.884Z" fill="#2E4BB7"/>
<path opacity="0.1" d="M174.592 417.884H186.789V369.784H174.592V417.884Z" fill="white"/>
<path d="M243.437 417.884H251.311V366.148H243.437V417.884Z" fill="#2E4BB7"/>
<path opacity="0.1" d="M243.437 417.884H251.311V366.148H243.437V417.884Z" fill="black"/>
<path d="M251.323 417.884H257.415V366.148H251.323V417.884Z" fill="#2E4BB7"/>
<path opacity="0.2" d="M251.323 417.884H257.415V366.148H251.323V417.884Z" fill="white"/>
<path d="M231.24 417.884H243.437V367.364H231.24V417.884Z" fill="#2E4BB7"/>
<path opacity="0.1" d="M231.24 417.884H243.437V367.364H231.24V417.884Z" fill="white"/>
<path d="M225.136 417.884H231.228V367.364H225.136V417.884Z" fill="#2E4BB7"/>
<path opacity="0.6" d="M225.136 417.884H231.228V367.364H225.136V417.884Z" fill="white"/>
<path d="M261.473 417.884H269.6V367.364H261.473V417.884Z" fill="#2E4BB7"/>
<path opacity="0.1" d="M261.473 417.884H269.6V367.364H261.473V417.884Z" fill="white"/>
<path d="M257.403 417.884H261.473V367.364H257.403V417.884Z" fill="#2E4BB7"/>
<path opacity="0.6" d="M257.403 417.884H261.473V367.364H257.403V417.884Z" fill="white"/>
<path d="M213 491.93H219.092V440.833H213V491.93Z" fill="#2E4BB7"/>
<path opacity="0.1" d="M213 491.93H219.092V440.833H213V491.93Z" fill="white"/>
<path d="M219.08 491.93H225.172V440.833H219.08V491.93Z" fill="#2E4BB7"/>
<path opacity="0.4" d="M219.08 491.93H225.172V440.833H219.08V491.93Z" fill="white"/>
<path d="M200.803 491.93H213V444.433H200.803V491.93Z" fill="#2E4BB7"/>
<path opacity="0.6" d="M200.803 491.93H213V444.433H200.803V491.93Z" fill="white"/>
<path d="M186.825 491.93H194.699V440.833H186.825V491.93Z" fill="#2E4BB7"/>
<path d="M194.699 491.93H200.791V440.833H194.699V491.93Z" fill="#2E4BB7"/>
<path opacity="0.1" d="M194.699 491.93H200.791V440.833H194.699V491.93Z" fill="black"/>
<path d="M140.579 491.93H148.453V440.833H140.579V491.93Z" fill="#2E4BB7"/>
<path opacity="0.4" d="M140.579 491.93H148.453V440.833H140.579V491.93Z" fill="white"/>
<path d="M148.465 491.93H154.557V440.833H148.465V491.93Z" fill="#2E4BB7"/>
<path opacity="0.6" d="M148.465 491.93H154.557V440.833H148.465V491.93Z" fill="white"/>
<path d="M166.754 491.93H174.628V440.833H166.754V491.93Z" fill="#2E4BB7"/>
<path opacity="0.6" d="M166.754 491.93H174.628V440.833H166.754V491.93Z" fill="white"/>
<path d="M174.628 491.93H180.72V440.833H174.628V491.93Z" fill="#2E4BB7"/>
<path opacity="0.1" d="M174.628 491.93H180.72V440.833H174.628V491.93Z" fill="black"/>
<path d="M128.383 491.942H140.579V442.061H128.383V491.942Z" fill="#2E4BB7"/>
<path opacity="0.1" d="M128.383 491.942H140.579V442.061H128.383V491.942Z" fill="white"/>
<path d="M122.29 491.942H128.383V442.061H122.29V491.942Z" fill="#2E4BB7"/>
<path opacity="0.6" d="M122.29 491.942H128.383V442.061H122.29V491.942Z" fill="white"/>
<path d="M158.627 491.942H166.754V442.061H158.627V491.942Z" fill="#2E4BB7"/>
<path opacity="0.1" d="M158.627 491.942H166.754V442.061H158.627V491.942Z" fill="white"/>
<path d="M154.545 491.942H158.615V442.061H154.545V491.942Z" fill="#2E4BB7"/>
<path opacity="0.3" d="M154.545 491.942H158.615V442.061H154.545V491.942Z" fill="white"/>
<path d="M174.616 491.93H186.813V444.433H174.616V491.93Z" fill="#2E4BB7"/>
<path opacity="0.1" d="M174.616 491.93H186.813V444.433H174.616V491.93Z" fill="white"/>
<path d="M243.485 491.93H251.359V440.833H243.485V491.93Z" fill="#2E4BB7"/>
<path opacity="0.1" d="M243.485 491.93H251.359V440.833H243.485V491.93Z" fill="black"/>
<path d="M251.347 491.93H257.439V440.833H251.347V491.93Z" fill="#2E4BB7"/>
<path opacity="0.2" d="M251.347 491.93H257.439V440.833H251.347V491.93Z" fill="white"/>
<path d="M231.276 491.942H243.473V442.061H231.276V491.942Z" fill="#2E4BB7"/>
<path opacity="0.1" d="M231.276 491.942H243.473V442.061H231.276V491.942Z" fill="white"/>
<path d="M225.184 491.942H231.276V442.061H225.184V491.942Z" fill="#2E4BB7"/>
<path opacity="0.6" d="M225.184 491.942H231.276V442.061H225.184V491.942Z" fill="white"/>
<path d="M261.521 491.942H269.648V442.061H261.521V491.942Z" fill="#2E4BB7"/>
<path opacity="0.1" d="M261.521 491.942H269.648V442.061H261.521V491.942Z" fill="white"/>
<path d="M257.439 491.942H261.509V442.061H257.439V491.942Z" fill="#2E4BB7"/>
<path opacity="0.6" d="M257.439 491.942H261.509V442.061H257.439V491.942Z" fill="white"/>
<path d="M175.868 290.73H169.571V343.838H175.868V290.73Z" fill="#2E4BB7"/>
<path opacity="0.1" d="M175.868 290.73H169.571V343.838H175.868V290.73Z" fill="white"/>
<path d="M169.559 290.73H163.262V343.838H169.559V290.73Z" fill="#2E4BB7"/>
<path opacity="0.4" d="M169.559 290.73H163.262V343.838H169.559V290.73Z" fill="white"/>
<path d="M188.474 294.462H175.868V343.838H188.474V294.462Z" fill="#2E4BB7"/>
<path opacity="0.6" d="M188.474 294.462H175.868V343.838H188.474V294.462Z" fill="white"/>
<path d="M202.934 290.73H194.783V343.838H202.934V290.73Z" fill="#2E4BB7"/>
<path d="M194.771 290.73H188.474V343.838H194.771V290.73Z" fill="#2E4BB7"/>
<path opacity="0.1" d="M194.771 290.73H188.474V343.838H194.771V290.73Z" fill="black"/>
<path d="M250.745 290.73H242.594V343.838H250.745V290.73Z" fill="#2E4BB7"/>
<path opacity="0.1" d="M250.745 290.73H242.594V343.838H250.745V290.73Z" fill="black"/>
<path d="M242.582 290.73H236.285V343.838H242.582V290.73Z" fill="#2E4BB7"/>
<path opacity="0.6" d="M242.582 290.73H236.285V343.838H242.582V290.73Z" fill="white"/>
<path d="M223.679 290.73H215.528V343.838H223.679V290.73Z" fill="#2E4BB7"/>
<path opacity="0.6" d="M223.679 290.73H215.528V343.838H223.679V290.73Z" fill="white"/>
<path d="M215.528 290.73H209.231V343.838H215.528V290.73Z" fill="#2E4BB7"/>
<path opacity="0.1" d="M215.528 290.73H209.231V343.838H215.528V290.73Z" fill="black"/>
<path d="M263.339 291.994H250.733V343.85H263.339V291.994Z" fill="#2E4BB7"/>
<path opacity="0.1" d="M263.339 291.994H250.733V343.85H263.339V291.994Z" fill="white"/>
<path d="M269.636 291.994H263.339V343.85H269.636V291.994Z" fill="#2E4BB7"/>
<path opacity="0.6" d="M269.636 291.994H263.339V343.85H269.636V291.994Z" fill="white"/>
<path d="M232.083 291.994H223.679V343.85H232.083V291.994Z" fill="#2E4BB7"/>
<path opacity="0.1" d="M232.083 291.994H223.679V343.85H232.083V291.994Z" fill="white"/>
<path d="M236.285 291.994H232.083V343.85H236.285V291.994Z" fill="#2E4BB7"/>
<path opacity="0.3" d="M236.285 291.994H232.083V343.85H236.285V291.994Z" fill="white"/>
<path d="M215.528 294.462H202.922V343.838H215.528V294.462Z" fill="#2E4BB7"/>
<path opacity="0.1" d="M215.528 294.462H202.922V343.838H215.528V294.462Z" fill="white"/>
<path d="M144.36 290.73H136.208V343.838H144.36V290.73Z" fill="#2E4BB7"/>
<path opacity="0.2" d="M144.36 290.73H136.208V343.838H144.36V290.73Z" fill="white"/>
<path d="M136.208 290.73H129.912V343.838H136.208V290.73Z" fill="#2E4BB7"/>
<path opacity="0.2" d="M136.208 290.73H129.912V343.838H136.208V290.73Z" fill="white"/>
<path d="M156.965 291.994H144.36V343.85H156.965V291.994Z" fill="#2E4BB7"/>
<path opacity="0.1" d="M156.965 291.994H144.36V343.85H156.965V291.994Z" fill="white"/>
<path d="M163.262 291.994H156.965V343.85H163.262V291.994Z" fill="#2E4BB7"/>
<path opacity="0.6" d="M163.262 291.994H156.965V343.85H163.262V291.994Z" fill="white"/>
<path d="M125.71 291.994H117.306V343.85H125.71V291.994Z" fill="#2E4BB7"/>
<path opacity="0.1" d="M125.71 291.994H117.306V343.85H125.71V291.994Z" fill="white"/>
<path d="M129.912 291.994H125.71V343.85H129.912V291.994Z" fill="#2E4BB7"/>
<path opacity="0.6" d="M129.912 291.994H125.71V343.85H129.912V291.994Z" fill="white"/>
<path d="M231.445 82.7148H133.993V114.97H231.445V82.7148Z" fill="#2E4BB7"/>
<path d="M137.003 66.1598H135.799V82.7148H137.003V66.1598Z" fill="#2E4BB7"/>
<path d="M230.987 66.1598H229.783V82.7148H230.987V66.1598Z" fill="#2E4BB7"/>
<g opacity="0.7">
<path d="M229.506 82.7148H133.993V112.851H229.506V82.7148Z" fill="white"/>
</g>
<path d="M218.309 88.5301H150.476V94.3936H218.309V88.5301Z" fill="#2E4BB7"/>
<path d="M218.321 98.8484H203.777V101.136H218.321V98.8484Z" fill="#2E4BB7"/>
<path d="M218.321 105.579H189.136V107.866H218.321V105.579Z" fill="#2E4BB7"/>
<path opacity="0.2" d="M112.767 498.348C113.225 498.456 113.703 498.459 114.162 498.354C114.622 498.249 115.051 498.041 115.417 497.744C115.783 497.448 116.077 497.071 116.275 496.644C116.473 496.216 116.57 495.749 116.559 495.277V489.33H194.169V494.013C194.226 495.063 194.637 496.063 195.334 496.85C196.032 497.637 196.975 498.164 198.01 498.348C198.468 498.456 198.946 498.459 199.405 498.354C199.865 498.249 200.294 498.041 200.66 497.744C201.027 497.448 201.32 497.071 201.518 496.644C201.716 496.216 201.813 495.749 201.802 495.277L200.358 200.177C200.304 199.127 199.896 198.126 199.201 197.337C198.506 196.547 197.564 196.017 196.529 195.831C196.07 195.722 195.592 195.72 195.132 195.825C194.672 195.929 194.242 196.138 193.875 196.434C193.508 196.73 193.213 197.107 193.014 197.534C192.814 197.962 192.715 198.429 192.724 198.901V203.62H115.139V200.177C115.087 199.126 114.68 198.124 113.984 197.334C113.289 196.545 112.346 196.015 111.31 195.831C110.851 195.722 110.374 195.72 109.914 195.824C109.455 195.929 109.026 196.138 108.659 196.434C108.293 196.731 108 197.107 107.802 197.535C107.604 197.962 107.506 198.43 107.517 198.901L108.962 494.013C109.013 495.059 109.417 496.057 110.108 496.844C110.799 497.631 111.736 498.161 112.767 498.348ZM193.844 427.42H116.234L115.993 377.502H193.603L193.844 427.42ZM115.44 265.566H193.049L193.302 315.496H115.68L115.44 265.566ZM193.326 321.468L193.567 371.386H115.957L115.716 321.468H193.326ZM192.785 209.58L193.025 259.51H115.415L115.163 209.58H192.785ZM116.511 483.322L116.258 433.44H193.844L194.085 483.37L116.511 483.322Z" fill="black"/>
<path d="M60.3926 498.348C61.3759 498.515 62.3856 498.286 63.2004 497.711C64.0151 497.135 64.5684 496.26 64.7391 495.277L65.7625 489.33H143.372L142.566 494.013C142.398 494.997 142.628 496.007 143.205 496.821C143.782 497.635 144.658 498.186 145.642 498.354C146.625 498.521 147.635 498.291 148.449 497.715C149.263 497.138 149.815 496.261 149.982 495.277L200.55 200.177C200.72 199.195 200.492 198.186 199.917 197.372C199.342 196.558 198.468 196.006 197.486 195.837C196.504 195.667 195.495 195.895 194.681 196.47C193.867 197.044 193.315 197.919 193.146 198.901L192.339 203.621H114.741L115.331 200.177C115.442 199.22 115.182 198.257 114.605 197.485C114.027 196.714 113.176 196.193 112.227 196.029C111.277 195.866 110.301 196.072 109.499 196.606C108.697 197.141 108.13 197.962 107.915 198.901L57.3465 494.013C57.2617 494.498 57.2732 494.995 57.3804 495.475C57.4877 495.955 57.6885 496.409 57.9713 496.812C58.2542 497.214 58.6137 497.557 59.0291 497.821C59.4446 498.084 59.9079 498.263 60.3926 498.348ZM153.992 427.312H76.3818L84.9422 377.394H162.54L153.992 427.312ZM104.11 265.566H181.732L173.171 315.448H95.5615L104.11 265.566ZM172.172 321.468L163.624 371.386H85.9656L94.526 321.468H172.172ZM191.352 209.58L182.791 259.51H105.145L113.706 209.58H191.352ZM66.7859 483.322L75.3463 433.44H152.908L144.36 483.37L66.7859 483.322Z" fill="#263238"/>
<path opacity="0.2" d="M60.3926 498.348C61.3759 498.515 62.3856 498.286 63.2004 497.711C64.0151 497.135 64.5684 496.26 64.7391 495.277L65.7625 489.33H143.372L142.566 494.013C142.398 494.997 142.628 496.007 143.205 496.821C143.782 497.635 144.658 498.186 145.642 498.354C146.625 498.521 147.635 498.291 148.449 497.715C149.263 497.138 149.815 496.261 149.982 495.277L200.55 200.177C200.72 199.195 200.492 198.186 199.917 197.372C199.342 196.558 198.468 196.006 197.486 195.837C196.504 195.667 195.495 195.895 194.681 196.47C193.867 197.044 193.315 197.919 193.146 198.901L192.339 203.621H114.741L115.331 200.177C115.442 199.22 115.182 198.257 114.605 197.485C114.027 196.714 113.176 196.193 112.227 196.029C111.277 195.866 110.301 196.072 109.499 196.606C108.697 197.141 108.13 197.962 107.915 198.901L57.3465 494.013C57.2617 494.498 57.2732 494.995 57.3804 495.475C57.4877 495.955 57.6885 496.409 57.9713 496.812C58.2542 497.214 58.6137 497.557 59.0291 497.821C59.4446 498.084 59.9079 498.263 60.3926 498.348ZM153.992 427.312H76.3818L84.9422 377.394H162.54L153.992 427.312ZM104.11 265.566H181.732L173.171 315.448H95.5615L104.11 265.566ZM172.172 321.468L163.624 371.386H85.9656L94.526 321.468H172.172ZM191.352 209.58L182.791 259.51H105.145L113.706 209.58H191.352ZM66.7859 483.322L75.3463 433.44H152.908L144.36 483.37L66.7859 483.322Z" fill="white"/>
<path d="M212.169 221.235H186.211C185.572 221.235 184.96 220.981 184.508 220.53C184.056 220.078 183.803 219.466 183.803 218.827V186.512C183.803 187.15 184.056 187.763 184.508 188.214C184.96 188.666 185.572 188.92 186.211 188.92H212.169V221.235Z" fill="#2E4BB7"/>
<path opacity="0.3" d="M212.169 221.235H186.211C185.572 221.235 184.96 220.981 184.508 220.53C184.056 220.078 183.803 219.466 183.803 218.827V186.512C183.803 187.15 184.056 187.763 184.508 188.214C184.96 188.666 185.572 188.92 186.211 188.92H212.169V221.235Z" fill="black"/>
<path d="M212.169 188.944H186.211C185.572 188.944 184.96 188.69 184.508 188.238C184.056 187.787 183.803 187.174 183.803 186.536C183.803 185.897 184.056 185.285 184.508 184.833C184.96 184.381 185.572 184.128 186.211 184.128H212.169V188.944Z" fill="#263238"/>
<path opacity="0.5" d="M212.169 188.944H186.211C185.572 188.944 184.96 188.69 184.508 188.238C184.056 187.787 183.803 187.174 183.803 186.536C183.803 185.897 184.056 185.285 184.508 184.833C184.96 184.381 185.572 184.128 186.211 184.128H212.169V188.944Z" fill="white"/>
<path d="M183.779 186.512C183.779 187.15 184.032 187.763 184.484 188.214C184.935 188.666 185.548 188.92 186.187 188.92H212.145V188.077H186.211C185.789 188.077 185.385 187.909 185.087 187.611C184.789 187.313 184.621 186.909 184.621 186.488C184.621 186.066 184.789 185.662 185.087 185.364C185.385 185.066 185.789 184.898 186.211 184.898H212.169V184.055H186.211C185.888 184.052 185.569 184.114 185.27 184.236C184.972 184.359 184.702 184.54 184.475 184.769C184.248 184.998 184.07 185.27 183.95 185.57C183.83 185.869 183.772 186.189 183.779 186.512Z" fill="#2E4BB7"/>
<path d="M206.414 195.891H189.546V206.57H206.414V195.891Z" fill="#2E4BB7"/>
<path opacity="0.5" d="M206.414 195.891H189.546V206.57H206.414V195.891Z" fill="white"/>
<path d="M59.1285 385.882L53.277 402.136L62.295 405.628L69.3384 390.638L59.1285 385.882Z" fill="#FF8B7B"/>
<path d="M63.222 406.41C63.1834 406.384 63.1534 406.346 63.1356 406.303C63.1179 406.259 63.1132 406.212 63.1222 406.166C63.1311 406.12 63.1533 406.077 63.186 406.044C63.2187 406.01 63.2605 405.987 63.3063 405.977C63.4749 405.977 67.4722 405.278 68.8929 406.302C69.0249 406.392 69.1377 406.508 69.2245 406.642C69.3113 406.777 69.3705 406.927 69.3986 407.084C69.4514 407.264 69.4474 407.455 69.387 407.632C69.3266 407.808 69.2129 407.962 69.0614 408.072C68.042 408.344 66.9581 408.232 66.0153 407.759C65.0452 407.395 64.1102 406.944 63.222 406.41ZM64.0528 406.41C65.7384 407.277 68.1223 408.144 68.7966 407.698C68.8808 407.698 68.9892 407.53 68.929 407.193C68.9159 407.093 68.8797 406.997 68.8232 406.914C68.7668 406.83 68.6917 406.761 68.6039 406.711C68.4755 406.625 68.3382 406.552 68.1946 406.494C66.8329 406.2 65.428 406.163 64.0528 406.386V406.41Z" fill="#2E4BB7"/>
<path d="M63.1017 406.362C63.0817 406.325 63.0712 406.284 63.0712 406.242C63.0712 406.2 63.0817 406.158 63.1017 406.121C63.1017 406.001 64.3057 403.545 65.9311 403.003C66.1558 402.924 66.3941 402.89 66.6319 402.905C66.8697 402.919 67.1022 402.981 67.3157 403.087C67.9177 403.376 67.9899 403.761 67.9177 404.026C67.725 405.158 64.691 406.374 63.3786 406.434C63.3639 406.443 63.3473 406.447 63.3304 406.447C63.3135 406.447 63.2969 406.443 63.2823 406.434C63.2489 406.435 63.2157 406.429 63.1847 406.416C63.1538 406.404 63.1255 406.385 63.1017 406.362ZM66.9906 403.46C66.7081 403.35 66.3942 403.35 66.1117 403.46C65.109 404.01 64.2951 404.849 63.7759 405.868C65.2087 405.616 67.2916 404.556 67.4722 403.894C67.4722 403.834 67.4722 403.665 67.123 403.485H66.9906V403.46Z" fill="#2E4BB7"/>
<path d="M62.7525 404.737L52.4342 400.932C52.246 400.862 52.0394 400.858 51.8488 400.922C51.6582 400.985 51.4951 401.112 51.3867 401.281L46.4022 408.987C46.2962 409.148 46.223 409.329 46.1868 409.518C46.1506 409.708 46.1522 409.902 46.1913 410.091C46.2304 410.28 46.3064 410.46 46.4149 410.619C46.5234 410.779 46.6623 410.916 46.8236 411.022C46.9092 411.082 47.0023 411.13 47.1005 411.166C50.8449 412.478 54.2282 413.514 58.8515 415.236C64.3177 417.27 62.6803 417.403 69.0735 419.883C72.9263 421.364 75.2621 417.234 73.7089 416.403C66.5451 412.671 66.6053 410.119 64.715 406.35C64.2778 405.592 63.5805 405.019 62.7525 404.737Z" fill="#263238"/>
<path opacity="0.2" d="M56.3231 393.684L65.7866 398.199L69.3384 390.638L59.1284 385.882L56.3231 393.684Z" fill="#263238"/>
<path d="M113.092 401.45L114.645 418.655L124.301 418.005L124.349 401.45H113.092Z" fill="#FF8B7B"/>
<path d="M125.963 417.716C125.915 417.707 125.871 417.684 125.836 417.649C125.802 417.615 125.779 417.571 125.77 417.523C125.758 417.475 125.762 417.424 125.782 417.379C125.801 417.333 125.835 417.295 125.878 417.27C126.023 417.174 129.49 415.043 131.164 415.452C131.321 415.485 131.47 415.548 131.603 415.639C131.735 415.73 131.848 415.847 131.934 415.982C132.042 416.133 132.1 416.314 132.1 416.5C132.1 416.685 132.042 416.866 131.934 417.018C131.095 417.66 130.05 417.972 128.997 417.896C127.982 417.917 126.967 417.857 125.963 417.716ZM126.733 417.367C128.611 417.535 131.152 417.427 131.549 416.753C131.549 416.668 131.669 416.524 131.477 416.235C131.427 416.149 131.357 416.076 131.273 416.021C131.19 415.967 131.094 415.933 130.995 415.922C130.844 415.898 130.689 415.898 130.538 415.922C129.192 416.166 127.902 416.656 126.733 417.367Z" fill="#2E4BB7"/>
<path d="M125.842 417.704C125.805 417.684 125.774 417.654 125.753 417.618C125.732 417.582 125.721 417.541 125.722 417.499C125.722 417.367 125.902 414.646 127.154 413.538C127.332 413.378 127.539 413.255 127.765 413.177C127.99 413.098 128.229 413.066 128.467 413.08C129.129 413.08 129.346 413.454 129.382 413.731C129.635 414.85 127.287 417.126 126.107 417.704H125.999C125.948 417.721 125.893 417.721 125.842 417.704ZM128.322 413.538C128.019 413.552 127.729 413.671 127.504 413.875C126.793 414.772 126.373 415.864 126.3 417.005C127.504 416.223 129.057 414.465 128.96 413.779C128.96 413.719 128.96 413.55 128.479 413.526L128.322 413.538Z" fill="#2E4BB7"/>
<path d="M124.891 416.343L113.886 416.741C113.686 416.748 113.495 416.824 113.344 416.956C113.193 417.087 113.091 417.266 113.056 417.463L111.382 426.481C111.346 426.673 111.348 426.871 111.389 427.062C111.431 427.254 111.51 427.435 111.622 427.595C111.734 427.756 111.877 427.892 112.043 427.996C112.208 428.101 112.393 428.171 112.586 428.203H112.899C116.86 427.986 120.376 427.649 125.312 427.48C131.14 427.276 129.683 428.022 136.534 427.878C140.663 427.781 141.253 423.062 139.495 422.893C131.453 422.171 130.538 419.787 127.347 417.029C126.639 416.51 125.766 416.266 124.891 416.343Z" fill="#263238"/>
<path opacity="0.2" d="M124.349 401.45H113.092L113.91 410.432L124.325 410.143L124.349 401.45Z" fill="#263238"/>
<path d="M104.808 242.004C104.808 242.004 87.5429 253.37 90.3602 286.805L87.4827 324.683C87.4827 324.683 70.3618 336.169 56.7205 389.097C60.2627 391.893 64.3711 393.886 68.7605 394.936L109.937 331.943L125.216 266.361L126.998 244.532L104.808 242.004Z" fill="#263238"/>
<path opacity="0.4" d="M117.535 299.206L111.322 275.126L101.425 270.25C101.425 270.25 101.425 317.206 105.868 338.155L109.925 331.943L117.535 299.206Z" fill="black"/>
<path d="M95.8625 201.429C95.8625 201.429 83.4372 217.009 86.8084 223.667C90.1796 230.325 100.787 230.975 100.787 230.975C101.167 231.727 101.728 232.373 102.419 232.854C103.111 233.336 103.911 233.637 104.748 233.733L106.843 224.101C106.12 223.71 105.307 223.519 104.486 223.547C103.665 223.574 102.866 223.819 102.171 224.257L95.2244 220.043L104.796 207.365L95.8625 201.429Z" fill="#FF8B7B"/>
<path d="M113.585 190.677C113.585 190.677 103.953 191.039 98.7762 195.421C93.599 199.804 92.7562 202.404 92.7562 202.404C92.7562 202.404 96.1876 207.389 106.41 210.086L113.585 190.677Z" fill="#2E4BB7"/>
<path opacity="0.1" d="M106.422 210.086L110.286 199.611L106.133 195.349C103.568 199.273 101.956 203.743 101.425 208.4C103.047 209.083 104.717 209.647 106.422 210.086Z" fill="black"/>
<path d="M108.914 242.004C108.914 242.004 94.6706 257.656 103.388 288.117L109.564 326.441C109.564 326.441 101.762 362.934 111.346 406.314C116.172 406.991 121.075 406.881 125.866 405.989L134.776 324.309L139.231 246.23L108.914 242.004Z" fill="#263238"/>
<path d="M118.546 190.124C118.546 190.124 123.807 189.594 123.723 179.926C123.723 179.926 128.539 177.698 131.718 180.564C134.896 183.429 128.876 190.088 132.789 192.893C132.789 192.893 129.358 195.205 118.546 190.124Z" fill="#FF8B7B"/>
<path d="M141.554 166.357C141.554 165.707 141.988 165.213 142.409 165.237C142.831 165.261 143.132 165.827 143.083 166.441C143.035 167.055 142.662 167.645 142.229 167.561C141.795 167.476 141.506 167.007 141.554 166.357Z" fill="#263238"/>
<path d="M142 167.525L145.419 172.04C144.888 172.44 144.271 172.711 143.616 172.83C142.962 172.949 142.289 172.913 141.651 172.726L142 167.525Z" fill="#FF5652"/>
<path d="M119.196 165.345C119.581 173.533 119.581 177.012 123.651 181.262C129.912 185.621 139.772 185.392 141.831 177.253C143.685 169.921 142.734 157.784 134.764 154.377C133.009 153.629 131.092 153.342 129.195 153.542C127.298 153.743 125.484 154.425 123.924 155.524C122.365 156.623 121.112 158.102 120.284 159.82C119.457 161.539 119.082 163.441 119.196 165.345Z" fill="#FF8B7B"/>
<path d="M140.338 164.442C140.401 164.456 140.466 164.455 140.528 164.441C140.591 164.426 140.649 164.398 140.699 164.358C141.05 164.036 141.471 163.801 141.93 163.674C142.388 163.546 142.87 163.529 143.336 163.624C143.384 163.638 143.434 163.643 143.483 163.637C143.532 163.631 143.58 163.616 143.623 163.591C143.666 163.566 143.703 163.532 143.732 163.493C143.762 163.453 143.783 163.407 143.794 163.359C143.808 163.311 143.814 163.261 143.809 163.212C143.804 163.163 143.79 163.115 143.766 163.071C143.742 163.027 143.71 162.989 143.672 162.957C143.633 162.926 143.589 162.903 143.541 162.889C142.952 162.76 142.342 162.774 141.759 162.929C141.177 163.084 140.64 163.376 140.194 163.78C140.159 163.814 140.132 163.854 140.113 163.899C140.094 163.943 140.084 163.991 140.084 164.039C140.084 164.087 140.094 164.135 140.113 164.179C140.132 164.224 140.159 164.264 140.194 164.298C140.229 164.357 140.279 164.407 140.338 164.442Z" fill="#263238"/>
<path d="M142.253 165.273L144.035 165.008C144.035 165.008 142.963 166.224 142.253 165.273Z" fill="#263238"/>
<path opacity="0.2" d="M127.48 183.213C128.534 184.928 130.048 186.312 131.85 187.21C132.115 186.15 132.428 185.067 132.572 184.068C130.839 184.074 129.116 183.785 127.48 183.213Z" fill="black"/>
<path d="M133.801 170.089C133.801 170.089 138.725 164.816 136.738 159.602C136.738 159.602 142.349 160.264 142 155.99C141.651 151.716 135.787 152.956 135.787 152.956C135.787 152.956 138.954 147.899 136.353 146.515C133.752 145.13 129.129 149.26 129.129 149.26C129.129 149.26 117.679 147.502 114.223 160.541C110.768 173.581 103.183 165.839 102.641 171.51C102.027 177.795 111.069 176.94 111.069 176.94C110.871 177.54 110.803 178.175 110.869 178.803C110.936 179.432 111.135 180.039 111.453 180.584C111.772 181.129 112.204 181.601 112.718 181.967C113.233 182.333 113.82 182.585 114.44 182.707C115.71 183.155 117.085 183.214 118.388 182.877C119.692 182.541 120.866 181.823 121.761 180.817C121.761 180.817 121.447 185.26 126.577 184.718C132.597 184.104 131.296 180.179 131.814 178.144C132.332 176.109 134.716 174.026 133.801 170.089Z" fill="#263238"/>
<path d="M129.213 150.307C129.213 150.307 126.998 143.77 130.875 143.408C134.752 143.047 129.069 145.528 129.213 150.307Z" fill="#263238"/>
<path d="M133.74 168.115C134.355 168.671 134.853 169.344 135.207 170.094C135.56 170.844 135.761 171.657 135.799 172.485C135.896 174.712 133.776 175.327 131.946 174.303C130.116 173.28 128.262 171.1 129.045 169.066C129.219 168.622 129.502 168.23 129.866 167.924C130.231 167.618 130.667 167.408 131.134 167.313C131.601 167.219 132.084 167.242 132.539 167.382C132.994 167.522 133.407 167.774 133.74 168.115Z" fill="#FF8B7B"/>
<path d="M116.03 191.52C116.03 191.52 114.199 183.73 125.89 187.138C137.581 190.545 136.606 197.203 136.606 197.203L116.03 191.52Z" fill="#2E4BB7"/>
<path opacity="0.5" d="M116.03 191.52C116.03 191.52 114.199 183.73 125.89 187.138C137.581 190.545 136.606 197.203 136.606 197.203L116.03 191.52Z" fill="white"/>
<path d="M100.39 245.905C100.39 245.905 105.832 227.183 105.362 215.034C104.892 202.886 100.546 188.438 120.641 190.714C140.736 192.989 145.022 199.96 145.022 211.001C145.022 222.042 139.375 253.382 139.375 253.382C139.375 253.382 118.955 258.74 100.39 245.905Z" fill="#2E4BB7"/>
<path opacity="0.1" d="M145.022 211.001C145.073 208.562 144.769 206.128 144.119 203.777L137.449 200.659L133.644 206.257C133.644 206.257 139.062 218.43 143.986 223.414C144.554 219.298 144.9 215.154 145.022 211.001Z" fill="black"/>
<path d="M151.957 206.233C151.957 206.233 158.483 212.735 161.143 215.347L181.419 209.761L183.165 204.511L186.211 204.343L195.445 201.586L198.877 204.969L195.542 212.193L184.597 214.312C184.597 214.312 166.766 224.161 160.228 223.535C153.691 222.909 145.106 215.107 145.106 215.107L151.957 206.233Z" fill="#FF8B7B"/>
<path d="M135.679 194.434C141.289 195.253 147.02 199.708 155.93 207.594C153.814 211.98 150.563 215.722 146.515 218.43C146.515 218.43 141.313 216.154 135.137 208.28C127.624 198.817 132.235 193.928 135.679 194.434Z" fill="#2E4BB7"/>
<path d="M357.203 498.456C355.288 498.456 353.759 497.89 353.819 496.048L357.769 371.892H364.523L360.574 496.253C360.514 497.974 359.021 498.456 357.203 498.456Z" fill="#263238"/>
<path opacity="0.2" d="M357.203 498.456C355.288 498.456 353.759 497.89 353.819 496.048L357.769 371.892H364.523L360.574 496.253C360.514 497.974 359.021 498.456 357.203 498.456Z" fill="white"/>
<path d="M423.688 371.783H339.528V389.494H423.688V371.783Z" fill="#263238"/>
<path opacity="0.2" d="M423.688 371.783H339.528V389.494H423.688V371.783Z" fill="white"/>
<path d="M445.275 371.783H423.688V389.494H445.275V371.783Z" fill="#2E4BB7"/>
<path d="M445.275 371.783H423.688V389.494H445.275V371.783Z" fill="#263238"/>
<path opacity="0.2" d="M445.275 371.783H423.688V389.494H445.275V371.783Z" fill="white"/>
<path d="M452.15 498.456C454.077 498.456 455.618 497.842 455.509 495.904L448.622 371.892H441.868L448.779 496.337C448.875 498.023 450.356 498.456 452.15 498.456Z" fill="#263238"/>
<path opacity="0.2" d="M452.15 498.456C454.077 498.456 455.618 497.842 455.509 495.904L448.622 371.892H441.868L448.779 496.337C448.875 498.023 450.356 498.456 452.15 498.456Z" fill="white"/>
<path d="M427.577 498.456C429.479 498.456 431.008 497.89 430.948 496.048L426.999 371.892H420.196L424.145 496.253C424.253 497.974 425.746 498.456 427.577 498.456Z" fill="#263238"/>
<path opacity="0.2" d="M427.577 498.456C429.479 498.456 431.008 497.89 430.948 496.048L426.999 371.892H420.196L424.145 496.253C424.253 497.974 425.746 498.456 427.577 498.456Z" fill="white"/>
<path d="M332.629 498.456C330.691 498.456 329.149 497.842 329.258 495.904L336.157 371.892H342.911L335.988 496.337C335.916 498.023 334.411 498.456 332.629 498.456Z" fill="#263238"/>
<path opacity="0.2" d="M332.629 498.456C330.691 498.456 329.149 497.842 329.258 495.904L336.157 371.892H342.911L335.988 496.337C335.916 498.023 334.411 498.456 332.629 498.456Z" fill="white"/>
<path d="M311.836 366.197H472.871C473.295 366.197 473.714 366.28 474.106 366.442C474.497 366.604 474.853 366.842 475.153 367.142C475.452 367.441 475.69 367.797 475.852 368.189C476.014 368.58 476.098 369 476.098 369.423V374.119C476.098 374.978 475.756 375.802 475.149 376.409C474.542 377.017 473.718 377.358 472.859 377.358H311.836C310.98 377.358 310.159 377.018 309.554 376.413C308.949 375.808 308.609 374.987 308.609 374.131V369.435C308.609 368.58 308.949 367.759 309.554 367.154C310.159 366.549 310.98 366.209 311.836 366.209V366.197Z" fill="#263238"/>
<path opacity="0.5" d="M311.836 366.197H472.871C473.295 366.197 473.714 366.28 474.106 366.442C474.497 366.604 474.853 366.842 475.153 367.142C475.452 367.441 475.69 367.797 475.852 368.189C476.014 368.58 476.098 369 476.098 369.423V374.119C476.098 374.978 475.756 375.802 475.149 376.409C474.542 377.017 473.718 377.358 472.859 377.358H311.836C310.98 377.358 310.159 377.018 309.554 376.413C308.949 375.808 308.609 374.987 308.609 374.131V369.435C308.609 368.58 308.949 367.759 309.554 367.154C310.159 366.549 310.98 366.209 311.836 366.209V366.197Z" fill="white"/>
<path d="M399.596 331.618V340.515C399.822 340.515 400.04 340.605 400.2 340.766C400.36 340.926 400.45 341.143 400.45 341.37C400.45 341.597 400.36 341.814 400.2 341.975C400.04 342.135 399.822 342.225 399.596 342.225C396.2 342.225 392.805 342.225 389.41 342.225V329.896H399.596C399.824 329.896 400.043 329.987 400.204 330.148C400.366 330.31 400.456 330.529 400.456 330.757C400.456 330.985 400.366 331.204 400.204 331.366C400.043 331.527 399.824 331.618 399.596 331.618Z" fill="#2E4BB7"/>
<path opacity="0.3" d="M399.596 331.618V340.515C399.822 340.515 400.04 340.605 400.2 340.766C400.36 340.926 400.45 341.143 400.45 341.37C400.45 341.597 400.36 341.814 400.2 341.975C400.04 342.135 399.822 342.225 399.596 342.225C396.2 342.225 392.805 342.225 389.41 342.225V329.896H399.596C399.824 329.896 400.043 329.987 400.204 330.148C400.366 330.31 400.456 330.529 400.456 330.757C400.456 330.985 400.366 331.204 400.204 331.366C400.043 331.527 399.824 331.618 399.596 331.618Z" fill="white"/>
<path d="M399.596 331.63H391.685V340.515H399.596V331.63Z" fill="#2E4BB7"/>
<path opacity="0.6" d="M399.596 331.63H391.685V340.515H399.596V331.63Z" fill="white"/>
<path d="M393.347 330.763H349.678C347.787 330.763 346.258 333.171 346.258 336.073C346.258 338.974 347.787 341.37 349.678 341.37H393.347V330.763Z" fill="#2E4BB7"/>
<path opacity="0.9" d="M393.347 330.763H349.678C347.787 330.763 346.258 333.171 346.258 336.073C346.258 338.974 347.787 341.37 349.678 341.37H393.347V330.763Z" fill="white"/>
<path d="M393.347 342.225C384.365 342.225 359.129 342.394 350.147 342.225C343.995 342.117 343.67 330.329 349.702 329.908C353.904 329.619 358.226 329.908 362.44 329.908H393.347C393.574 329.908 393.791 329.998 393.951 330.158C394.112 330.319 394.202 330.536 394.202 330.763C394.202 330.99 394.112 331.207 393.951 331.367C393.791 331.528 393.574 331.618 393.347 331.618H351.568C349.593 331.618 348.185 331.618 347.426 333.966C346.764 335.976 346.981 340.082 349.678 340.515C349.982 340.539 350.288 340.539 350.593 340.515H393.347C393.574 340.515 393.791 340.605 393.951 340.766C394.112 340.926 394.202 341.143 394.202 341.37C394.202 341.597 394.112 341.814 393.951 341.975C393.791 342.135 393.574 342.225 393.347 342.225Z" fill="#2E4BB7"/>
<g opacity="0.2">
<path d="M393.347 342.225C384.365 342.225 359.129 342.394 350.147 342.225C343.995 342.117 343.67 330.329 349.702 329.908C353.904 329.619 358.226 329.908 362.44 329.908H393.347C393.574 329.908 393.791 329.998 393.951 330.158C394.112 330.319 394.202 330.536 394.202 330.763C394.202 330.99 394.112 331.207 393.951 331.367C393.791 331.528 393.574 331.618 393.347 331.618H351.568C349.593 331.618 348.185 331.618 347.426 333.966C346.764 335.976 346.981 340.082 349.678 340.515C349.982 340.539 350.288 340.539 350.593 340.515H393.347C393.574 340.515 393.791 340.605 393.951 340.766C394.112 340.926 394.202 341.143 394.202 341.37C394.202 341.597 394.112 341.814 393.951 341.975C393.791 342.135 393.574 342.225 393.347 342.225Z" fill="white"/>
</g>
<path d="M398.079 343.634V351.881C398.271 351.905 398.448 351.998 398.576 352.143C398.705 352.289 398.776 352.476 398.776 352.67C398.776 352.863 398.705 353.051 398.576 353.196C398.448 353.341 398.271 353.434 398.079 353.458H388.639V342.02H398.079C398.292 342.02 398.498 342.105 398.649 342.257C398.8 342.408 398.885 342.613 398.885 342.827C398.885 343.041 398.8 343.246 398.649 343.397C398.498 343.549 398.292 343.634 398.079 343.634Z" fill="#2E4BB7"/>
<path opacity="0.3" d="M398.079 343.634V351.881C398.271 351.905 398.448 351.998 398.576 352.143C398.705 352.289 398.776 352.476 398.776 352.67C398.776 352.863 398.705 353.051 398.576 353.196C398.448 353.341 398.271 353.434 398.079 353.458H388.639V342.02H398.079C398.292 342.02 398.498 342.105 398.649 342.257C398.8 342.408 398.885 342.613 398.885 342.827C398.885 343.041 398.8 343.246 398.649 343.397C398.498 343.549 398.292 343.634 398.079 343.634Z" fill="white"/>
<path d="M398.079 343.646H390.746V351.881H398.079V343.646Z" fill="#2E4BB7"/>
<path opacity="0.6" d="M398.079 343.646H390.746V351.881H398.079V343.646Z" fill="white"/>
<path d="M392.287 342.839H351.845C350.099 342.839 348.678 345.042 348.678 347.751C348.678 350.46 350.099 352.664 351.845 352.664H392.287V342.839Z" fill="#2E4BB7"/>
<path opacity="0.9" d="M392.287 342.839H351.845C350.099 342.839 348.678 345.042 348.678 347.751C348.678 350.46 350.099 352.664 351.845 352.664H392.287V342.839Z" fill="white"/>
<path d="M392.287 353.458C383.968 353.458 360.598 353.603 352.278 353.458C346.583 353.35 346.258 342.442 351.869 342.056C355.758 341.792 359.767 342.056 363.668 342.056H392.287C392.48 342.08 392.657 342.174 392.785 342.319C392.913 342.464 392.984 342.651 392.984 342.845C392.984 343.039 392.913 343.226 392.785 343.371C392.657 343.517 392.48 343.61 392.287 343.634H353.603C351.773 343.634 350.472 343.634 349.762 345.801C349.148 347.667 349.341 351.472 351.845 351.881C352.13 351.899 352.415 351.899 352.7 351.881H392.287C392.48 351.905 392.657 351.998 392.785 352.143C392.913 352.289 392.984 352.476 392.984 352.67C392.984 352.864 392.913 353.051 392.785 353.196C392.657 353.341 392.48 353.435 392.287 353.458Z" fill="#2E4BB7"/>
<path d="M402.774 355.18V364.993C403.023 364.993 403.262 365.092 403.438 365.268C403.614 365.444 403.713 365.683 403.713 365.932C403.713 366.181 403.614 366.42 403.438 366.596C403.262 366.772 403.023 366.871 402.774 366.871C399.042 366.871 395.297 366.871 391.553 366.871V353.314H402.774C403.003 353.34 403.215 353.449 403.369 353.622C403.522 353.794 403.607 354.016 403.607 354.247C403.607 354.478 403.522 354.7 403.369 354.872C403.215 355.044 403.003 355.154 402.774 355.18Z" fill="#2E4BB7"/>
<path opacity="0.3" d="M402.774 355.18V364.993C403.023 364.993 403.262 365.092 403.438 365.268C403.614 365.444 403.713 365.683 403.713 365.932C403.713 366.181 403.614 366.42 403.438 366.596C403.262 366.772 403.023 366.871 402.774 366.871C399.042 366.871 395.297 366.871 391.553 366.871V353.314H402.774C403.003 353.34 403.215 353.449 403.369 353.622C403.522 353.794 403.607 354.016 403.607 354.247C403.607 354.478 403.522 354.7 403.369 354.872C403.215 355.044 403.003 355.154 402.774 355.18Z" fill="white"/>
<path d="M402.774 355.204H394.057V365.005H402.774V355.204Z" fill="#2E4BB7"/>
<path opacity="0.6" d="M402.774 355.204H394.057V365.005H402.774V355.204Z" fill="white"/>
<path d="M395.887 354.253H347.727C345.656 354.253 343.971 356.866 343.971 360.092C343.971 363.319 345.656 365.944 347.727 365.944H395.887V354.253Z" fill="#2E4BB7"/>
<path opacity="0.9" d="M395.887 354.253H347.727C345.656 354.253 343.971 356.866 343.971 360.092C343.971 363.319 345.656 365.944 347.727 365.944H395.887V354.253Z" fill="white"/>
<path d="M395.887 366.883C385.99 366.883 358.178 367.063 348.281 366.883C341.503 366.762 341.141 353.771 347.787 353.314C352.423 353.001 357.191 353.314 361.826 353.314H395.887C396.136 353.314 396.375 353.413 396.551 353.589C396.727 353.765 396.826 354.004 396.826 354.253C396.826 354.502 396.727 354.741 396.551 354.917C396.375 355.093 396.136 355.192 395.887 355.192H349.846C347.679 355.192 346.126 355.192 345.283 357.781C344.561 359.996 344.789 364.511 347.751 365.005C348.092 365.029 348.434 365.029 348.775 365.005H395.887C396.136 365.005 396.375 365.104 396.551 365.28C396.727 365.456 396.826 365.695 396.826 365.944C396.826 366.193 396.727 366.432 396.551 366.608C396.375 366.784 396.136 366.883 395.887 366.883Z" fill="#2E4BB7"/>
<g opacity="0.2">
<path d="M395.887 366.883C385.99 366.883 358.178 367.063 348.281 366.883C341.503 366.762 341.141 353.771 347.787 353.314C352.423 353.001 357.191 353.314 361.826 353.314H395.887C396.136 353.314 396.375 353.413 396.551 353.589C396.727 353.765 396.826 354.004 396.826 354.253C396.826 354.502 396.727 354.741 396.551 354.917C396.375 355.093 396.136 355.192 395.887 355.192H349.846C347.679 355.192 346.126 355.192 345.283 357.781C344.561 359.996 344.789 364.511 347.751 365.005C348.092 365.029 348.434 365.029 348.775 365.005H395.887C396.136 365.005 396.375 365.104 396.551 365.28C396.727 365.456 396.826 365.695 396.826 365.944C396.826 366.193 396.727 366.432 396.551 366.608C396.375 366.784 396.136 366.883 395.887 366.883Z" fill="black"/>
</g>
</svg>
