<svg width="602" height="602" viewBox="0 0 602 602" fill="none" xmlns="http://www.w3.org/2000/svg">
<path d="M602 460.41H0V460.711H602V460.41Z" fill="#EBEBEB"/>
<path d="M541.68 479.782H510.099V480.083H541.68V479.782Z" fill="#EBEBEB"/>
<path d="M429.539 475.869H388.326V476.17H429.539V475.869Z" fill="#EBEBEB"/>
<path d="M500.587 468.609H468.753V468.91H500.587V468.609Z" fill="#EBEBEB"/>
<path d="M133.512 470.632H81.5108V470.933H133.512V470.632Z" fill="#EBEBEB"/>
<path d="M70.7832 470.632H63.1619V470.933H70.7832V470.632Z" fill="#EBEBEB"/>
<path d="M225.955 475.712H158.29V476.013H225.955V475.712Z" fill="#EBEBEB"/>
<path d="M285.348 406.711H52.8676C51.0464 406.708 49.3008 405.982 48.0142 404.693C46.7275 403.404 46.0048 401.658 46.0048 399.836V73.0346C46.0207 71.2238 46.7503 69.4924 48.0353 68.2165C49.3203 66.9405 51.0568 66.2231 52.8676 66.22H285.348C287.171 66.22 288.92 66.9443 290.209 68.2336C291.499 69.5228 292.223 71.2715 292.223 73.0948V399.836C292.223 401.66 291.499 403.408 290.209 404.698C288.92 405.987 287.171 406.711 285.348 406.711ZM52.8676 66.4608C51.1262 66.464 49.4572 67.158 48.227 68.3905C46.9968 69.6229 46.3058 71.2932 46.3058 73.0346V399.836C46.3058 401.578 46.9968 403.248 48.227 404.48C49.4572 405.713 51.1262 406.407 52.8676 406.41H285.348C287.09 406.407 288.761 405.713 289.993 404.481C291.225 403.249 291.919 401.579 291.922 399.836V73.0346C291.919 71.2921 291.225 69.6219 289.993 68.3897C288.761 67.1576 287.09 66.464 285.348 66.4608H52.8676Z" fill="#EBEBEB"/>
<path d="M545.785 406.711H313.293C311.47 406.708 309.724 405.983 308.435 404.694C307.147 403.405 306.421 401.659 306.418 399.836V73.0346C306.437 71.2227 307.169 69.4913 308.456 68.2157C309.743 66.9401 311.481 66.223 313.293 66.22H545.785C547.594 66.2262 549.327 66.9451 550.61 68.2207C551.892 69.4963 552.62 71.2259 552.636 73.0346V399.836C552.636 401.655 551.915 403.4 550.631 404.689C549.347 405.978 547.604 406.705 545.785 406.711ZM313.293 66.4608C311.55 66.464 309.88 67.1576 308.648 68.3897C307.416 69.6219 306.722 71.2921 306.719 73.0346V399.836C306.722 401.579 307.416 403.249 308.648 404.481C309.88 405.713 311.55 406.407 313.293 406.41H545.785C547.528 406.407 549.198 405.713 550.43 404.481C551.662 403.249 552.356 401.579 552.359 399.836V73.0346C552.356 71.2921 551.662 69.6219 550.43 68.3897C549.198 67.1576 547.528 66.464 545.785 66.4608H313.293Z" fill="#EBEBEB"/>
<path d="M406.88 100.486H80.2104V287.636H406.88V100.486Z" fill="#E6E6E6"/>
<path d="M411.744 100.486H82.486V287.636H411.744V100.486Z" fill="#F0F0F0"/>
<path d="M404.941 279.99V108.119L89.2886 108.119V279.99H404.941Z" fill="#FAFAFA"/>
<path d="M128.033 279.99L167.946 108.119H220.284L180.359 279.99H128.033Z" fill="white"/>
<path d="M188.835 279.99L228.748 108.119H252.382L212.47 279.99H188.835Z" fill="white"/>
<path d="M282.603 279.99L322.528 108.119H362.898L322.973 279.99H282.603Z" fill="white"/>
<path d="M404.941 280.002V108.131H404.074V280.002H404.941Z" fill="#E6E6E6"/>
<path d="M256.934 100.486H237.308V287.636H256.934V100.486Z" fill="#F0F0F0"/>
<path d="M237.308 279.99V108.119H236.441V279.99H237.308Z" fill="#E6E6E6"/>
<path d="M247.458 100.486H246.772V287.636H247.458V100.486Z" fill="#E6E6E6"/>
<g opacity="0.7">
<path d="M386.966 241.27H418.366V90.5769H386.966V241.27Z" fill="#EBEBEB"/>
<path d="M386.966 90.5649H366.63V223.667H386.966V90.5649Z" fill="#E0E0E0"/>
<path d="M335.23 241.27H366.63V90.5769H335.23V241.27Z" fill="#EBEBEB"/>
<path d="M335.23 90.5649H314.894V223.667H335.23V90.5649Z" fill="#E0E0E0"/>
<path d="M283.494 241.27H314.894V90.5769H283.494V241.27Z" fill="#EBEBEB"/>
<path d="M283.494 90.5649H263.158V223.667H283.494V90.5649Z" fill="#E0E0E0"/>
<path d="M231.758 241.27H263.158V90.5769H231.758L231.758 241.27Z" fill="#EBEBEB"/>
<path d="M231.758 90.5649H211.422V223.667H231.758V90.5649Z" fill="#E0E0E0"/>
<path d="M180.022 241.27H211.422L211.422 90.5769H180.022L180.022 241.27Z" fill="#EBEBEB"/>
<path d="M180.022 90.5649H159.687V223.667H180.022V90.5649Z" fill="#E0E0E0"/>
<path d="M128.286 241.27H159.686L159.686 90.5769H128.286L128.286 241.27Z" fill="#EBEBEB"/>
<path d="M76.5503 241.27H107.951L107.951 90.5769H76.5503L76.5503 241.27Z" fill="#EBEBEB"/>
<path d="M128.286 90.5649H107.951V223.667H128.286V90.5649Z" fill="#E0E0E0"/>
</g>
<path d="M521.561 342.333H481.167V460.41H521.561V342.333Z" fill="#E6E6E6"/>
<path d="M510.761 460.41H521.549V440.038H499.455L510.761 460.41Z" fill="#F5F5F5"/>
<path d="M274.524 342.333H234.13V460.41H274.524V342.333Z" fill="#E6E6E6"/>
<path d="M521.549 342.333H265.109V453.39H521.549V342.333Z" fill="#F5F5F5"/>
<path d="M275.885 460.41H265.109V440.038H287.202L275.885 460.41Z" fill="#F5F5F5"/>
<path d="M513.193 352.074H273.477V393.178H513.193V352.074Z" fill="#E6E6E6"/>
<path d="M513.193 401.979H273.477V443.084H513.193V401.979Z" fill="#E6E6E6"/>
<path d="M476.82 164.503H538.549V154.606H476.82V164.503Z" fill="#F0F0F0"/>
<path d="M476.832 154.606H447.394V164.502H476.832V154.606Z" fill="#E6E6E6"/>
<path d="M477.964 164.503H507.691L486.019 178.65H477.964V164.503Z" fill="#EBEBEB"/>
<path d="M474.858 164.503H504.584L482.912 178.65H474.858V164.503Z" fill="#E0E0E0"/>
<path d="M500.021 154.606H519.345V112.225H500.021V154.606Z" fill="#E6E6E6"/>
<path d="M524.932 112.213H519.345V154.594H524.932V112.213Z" fill="#F0F0F0"/>
<path d="M475.122 115.957H500.021L506.029 154.606H481.118L475.122 115.957Z" fill="#E6E6E6"/>
<path d="M507.221 115.957H500.021L506.029 154.606H513.229L507.221 115.957Z" fill="#F0F0F0"/>
<path d="M463.636 154.606H491.858V110.804H463.636V154.606Z" fill="#EBEBEB"/>
<path d="M500.021 110.804H491.858V154.606H500.021V110.804Z" fill="#F5F5F5"/>
<path d="M485.308 154.606H484.104V128.238C484.104 127.149 483.89 126.07 483.473 125.063C483.056 124.057 482.445 123.142 481.675 122.372C480.904 121.602 479.99 120.991 478.983 120.574C477.977 120.157 476.898 119.942 475.809 119.942C474.719 119.942 473.641 120.157 472.634 120.574C471.628 120.991 470.713 121.602 469.943 122.372C469.173 123.142 468.562 124.057 468.145 125.063C467.728 126.07 467.513 127.149 467.513 128.238V154.606H466.309V128.238C466.309 126.991 466.555 125.755 467.032 124.603C467.51 123.45 468.209 122.403 469.092 121.521C469.974 120.639 471.021 119.939 472.173 119.462C473.326 118.984 474.561 118.738 475.809 118.738C477.056 118.738 478.292 118.984 479.444 119.462C480.597 119.939 481.644 120.639 482.526 121.521C483.408 122.403 484.108 123.45 484.585 124.603C485.063 125.755 485.308 126.991 485.308 128.238V154.606Z" fill="#E0E0E0"/>
<path d="M476.82 250.36H538.549V240.463H476.82V250.36Z" fill="#F0F0F0"/>
<path d="M476.832 240.451H447.394V250.348H476.832V240.451Z" fill="#E6E6E6"/>
<path d="M477.964 250.348H507.691L486.019 264.507H477.964V250.348Z" fill="#EBEBEB"/>
<path d="M474.858 250.348H504.584L482.912 264.507H474.858V250.348Z" fill="#E0E0E0"/>
<path d="M493.435 240.451H521.657V209.111H493.435V240.451Z" fill="#E0E0E0"/>
<path d="M528.893 209.111H521.657V240.451H528.893V209.111Z" fill="#F0F0F0"/>
<path d="M484.706 240.451H508.895V200.249H484.706V240.451Z" fill="#E0E0E0"/>
<path d="M513.819 200.249H508.895V240.451H513.819V200.249Z" fill="#EBEBEB"/>
<path d="M476.904 240.451H498.107V204.271H476.904V240.451Z" fill="#E6E6E6"/>
<path d="M504.235 204.283H498.107V240.463H504.235V204.283Z" fill="#F0F0F0"/>
<path d="M463.636 240.451H491.858V209.111H463.636V240.451Z" fill="#F0F0F0"/>
<path d="M495.94 209.111H491.858V240.451H495.94V209.111Z" fill="#FAFAFA"/>
<path d="M485.308 240.451H484.104V214.095C484.104 211.895 483.23 209.785 481.675 208.229C480.119 206.674 478.009 205.8 475.809 205.8C473.609 205.8 471.499 206.674 469.943 208.229C468.387 209.785 467.513 211.895 467.513 214.095V240.451H466.309V214.095C466.309 211.576 467.31 209.16 469.092 207.378C470.873 205.597 473.289 204.596 475.809 204.596C478.328 204.596 480.744 205.597 482.526 207.378C484.307 209.16 485.308 211.576 485.308 214.095V240.451Z" fill="#E0E0E0"/>
<path d="M182.647 362.067H172.256V460.41H182.647V362.067Z" fill="#F5F5F5"/>
<path d="M187.174 362.067H178.132V460.41H187.174V362.067Z" fill="#F0F0F0"/>
<path d="M77.8867 362.067H67.4962V460.41H77.8867V362.067Z" fill="#F5F5F5"/>
<path d="M82.4138 362.067H73.3718V460.41H82.4138V362.067Z" fill="#F0F0F0"/>
<path d="M222.042 362.067H211.651V460.41H222.042V362.067Z" fill="#F5F5F5"/>
<path d="M226.557 362.067H217.515V460.41H226.557V362.067Z" fill="#F0F0F0"/>
<path d="M117.282 362.067H106.891V460.41H117.282V362.067Z" fill="#F5F5F5"/>
<path d="M67.5083 364.547H226.569V352.074H67.5083V364.547Z" fill="#F0F0F0"/>
<path d="M67.5082 364.547H112.767V352.074H67.5082V364.547Z" fill="#E6E6E6"/>
<path d="M121.809 362.067H112.767V460.41H121.809V362.067Z" fill="#F0F0F0"/>
<path d="M301 514.782C429.927 514.782 534.444 508.68 534.444 501.153C534.444 493.626 429.927 487.524 301 487.524C172.073 487.524 67.5565 493.626 67.5565 501.153C67.5565 508.68 172.073 514.782 301 514.782Z" fill="#F5F5F5"/>
<path d="M466.707 501.454L225.979 501.454V441.085H466.707C467.945 441.085 469.134 441.577 470.01 442.454C470.886 443.33 471.378 444.518 471.378 445.757V496.782C471.378 498.021 470.886 499.21 470.01 500.086C469.134 500.962 467.945 501.454 466.707 501.454Z" fill="#2E4BB7"/>
<path opacity="0.2" d="M466.707 501.454L225.979 501.454V441.085H466.707C467.945 441.085 469.134 441.577 470.01 442.454C470.886 443.33 471.378 444.518 471.378 445.757V496.782C471.378 498.021 470.886 499.21 470.01 500.086C469.134 500.962 467.945 501.454 466.707 501.454Z" fill="black"/>
<path opacity="0.2" d="M284.999 501.454H321.829V441.085H284.999V501.454Z" fill="black"/>
<path opacity="0.2" d="M337.65 501.454H356.324V441.085H337.65V501.454Z" fill="black"/>
<path d="M146.238 441.085H225.967V501.454H146.238C144.992 501.454 143.798 500.959 142.918 500.079C142.037 499.198 141.542 498.004 141.542 496.758V445.781C141.542 444.536 142.037 443.341 142.918 442.461C143.798 441.58 144.992 441.085 146.238 441.085Z" fill="#2E4BB7"/>
<path opacity="0.9" d="M141.542 447.575H211.29C212.915 447.575 214.474 448.221 215.623 449.37C216.773 450.519 217.418 452.078 217.418 453.703V488.824C217.418 490.449 216.773 492.008 215.623 493.157C214.474 494.307 212.915 494.952 211.29 494.952H141.542V447.575Z" fill="white"/>
<path opacity="0.2" d="M437.642 488.535C447.177 488.535 454.907 480.805 454.907 471.27C454.907 461.734 447.177 454.004 437.642 454.004C428.107 454.004 420.377 461.734 420.377 471.27C420.377 480.805 428.107 488.535 437.642 488.535Z" fill="black"/>
<path d="M484.14 441.037H243.34V397.224H484.14C485.379 397.224 486.568 397.716 487.444 398.592C488.32 399.468 488.812 400.656 488.812 401.895V436.414C488.799 437.644 488.302 438.82 487.427 439.686C486.552 440.552 485.371 441.037 484.14 441.037Z" fill="#263238"/>
<path opacity="0.2" d="M484.14 441.037H243.34V397.224H484.14C485.379 397.224 486.568 397.716 487.444 398.592C488.32 399.468 488.812 400.656 488.812 401.895V436.414C488.799 437.644 488.302 438.82 487.427 439.686C486.552 440.552 485.371 441.037 484.14 441.037Z" fill="black"/>
<path d="M163.66 397.32H243.389V441.134H163.66C162.414 441.134 161.22 440.639 160.339 439.758C159.459 438.878 158.964 437.683 158.964 436.438V401.967C158.977 400.73 159.477 399.548 160.356 398.678C161.236 397.808 162.423 397.32 163.66 397.32Z" fill="#263238"/>
<path opacity="0.9" d="M158.928 403.761H228.76C230.385 403.761 231.944 404.407 233.093 405.556C234.243 406.706 234.888 408.264 234.888 409.89V428.492C234.892 429.298 234.735 430.098 234.429 430.844C234.122 431.59 233.671 432.269 233.102 432.84C232.533 433.412 231.856 433.866 231.111 434.175C230.366 434.485 229.567 434.644 228.76 434.644H158.928V403.761Z" fill="white"/>
<path opacity="0.3" d="M293.788 430.707H462.228C465.014 430.707 467.272 428.448 467.272 425.662V412.683C467.272 409.897 465.014 407.638 462.228 407.638H293.788C291.002 407.638 288.743 409.897 288.743 412.683V425.662C288.743 428.448 291.002 430.707 293.788 430.707Z" fill="#2E4BB7"/>
<path opacity="0.3" d="M252.527 441.085H258.92V397.272H252.527V441.085Z" fill="#2E4BB7"/>
<path opacity="0.3" d="M264.194 441.085H270.587V397.272H264.194V441.085Z" fill="#2E4BB7"/>
<path d="M457.484 397.272L216.768 397.272V352.026H457.484C458.723 352.026 459.911 352.518 460.787 353.394C461.663 354.27 462.155 355.458 462.155 356.697V392.6C462.155 393.839 461.663 395.028 460.787 395.904C459.911 396.78 458.723 397.272 457.484 397.272Z" fill="#2E4BB7"/>
<path opacity="0.3" d="M457.484 397.272L216.768 397.272V352.026H457.484C458.723 352.026 459.911 352.518 460.787 353.394C461.663 354.27 462.155 355.458 462.155 356.697V392.6C462.155 393.839 461.663 395.028 460.787 395.904C459.911 396.78 458.723 397.272 457.484 397.272Z" fill="black"/>
<path opacity="0.9" d="M275.788 397.272H359.37V352.074H275.788V397.272Z" fill="white"/>
<path opacity="0.9" d="M395.273 397.272H437.654V352.074H395.273V397.272Z" fill="white"/>
<path d="M137.039 352.074H216.72V397.32H137.039C136.423 397.32 135.812 397.199 135.242 396.963C134.673 396.727 134.155 396.381 133.719 395.945C133.283 395.509 132.937 394.991 132.701 394.421C132.465 393.852 132.344 393.241 132.344 392.624V356.769C132.344 356.153 132.465 355.542 132.701 354.972C132.937 354.403 133.283 353.885 133.719 353.449C134.155 353.013 134.673 352.667 135.242 352.431C135.812 352.195 136.423 352.074 137.039 352.074Z" fill="#2E4BB7"/>
<path opacity="0.9" d="M132.344 358.551H202.091C203.717 358.551 205.276 359.197 206.425 360.346C207.574 361.495 208.22 363.054 208.22 364.68V384.654C208.22 386.279 207.574 387.838 206.425 388.987C205.276 390.137 203.717 390.782 202.091 390.782H132.344V358.551Z" fill="white"/>
<path d="M474.894 352.074L234.178 352.074V322.094H474.894C476.133 322.094 477.321 322.586 478.197 323.462C479.073 324.338 479.565 325.527 479.565 326.766V347.402C479.565 348.641 479.073 349.829 478.197 350.705C477.321 351.582 476.133 352.074 474.894 352.074Z" fill="#2E4BB7"/>
<path opacity="0.3" d="M474.894 352.074L234.178 352.074V322.094H474.894C476.133 322.094 477.321 322.586 478.197 323.462C479.073 324.338 479.565 325.527 479.565 326.766V347.402C479.565 348.641 479.073 349.829 478.197 350.705C477.321 351.582 476.133 352.074 474.894 352.074Z" fill="white"/>
<path opacity="0.2" d="M474.894 352.074L234.178 352.074V322.094H474.894C476.133 322.094 477.321 322.586 478.197 323.462C479.073 324.338 479.565 325.527 479.565 326.766V347.402C479.565 348.641 479.073 349.829 478.197 350.705C477.321 351.582 476.133 352.074 474.894 352.074Z" fill="black"/>
<path d="M154.449 322.094H234.178V352.074H154.449C153.204 352.074 152.009 351.579 151.129 350.698C150.248 349.818 149.754 348.623 149.754 347.378V326.79C149.754 325.544 150.248 324.35 151.129 323.469C152.009 322.589 153.204 322.094 154.449 322.094Z" fill="#2E4BB7"/>
<path opacity="0.3" d="M154.449 322.094H234.178V352.074H154.449C153.204 352.074 152.009 351.579 151.129 350.698C150.248 349.818 149.754 348.623 149.754 347.378V326.79C149.754 325.544 150.248 324.35 151.129 323.469C152.009 322.589 153.204 322.094 154.449 322.094Z" fill="white"/>
<path opacity="0.9" d="M149.754 328.584H219.489C221.115 328.584 222.673 329.229 223.823 330.379C224.972 331.528 225.618 333.087 225.618 334.712V339.528C225.589 341.134 224.931 342.666 223.785 343.792C222.639 344.917 221.096 345.548 219.489 345.548H149.754V328.584Z" fill="white"/>
<path opacity="0.4" d="M255.718 344.175H364.824V330.004H255.718V344.175Z" fill="#263238"/>
<path d="M275.596 312.173H310.018V322.106H275.596C275.391 322.106 275.195 322.025 275.051 321.88C274.906 321.736 274.825 321.54 274.825 321.336V312.908C274.834 312.71 274.92 312.523 275.063 312.386C275.207 312.249 275.397 312.173 275.596 312.173Z" fill="#2E4BB7"/>
<path opacity="0.2" d="M275.596 312.173H310.018V322.106H275.596C275.391 322.106 275.195 322.025 275.051 321.88C274.906 321.736 274.825 321.54 274.825 321.336V312.908C274.834 312.71 274.92 312.523 275.063 312.386C275.207 312.249 275.397 312.173 275.596 312.173Z" fill="black"/>
<path d="M323.142 322.118H310.066V312.185H323.19C323.394 312.185 323.59 312.266 323.735 312.411C323.879 312.555 323.96 312.751 323.96 312.956V321.384C323.956 321.486 323.931 321.586 323.887 321.679C323.843 321.771 323.781 321.854 323.705 321.923C323.629 321.991 323.54 322.044 323.443 322.077C323.346 322.111 323.244 322.125 323.142 322.118Z" fill="#2E4BB7"/>
<path opacity="0.9" d="M323.924 321.047H312.45C312.182 321.047 311.925 320.94 311.735 320.75C311.545 320.561 311.439 320.303 311.439 320.035V314.256C311.439 313.988 311.545 313.731 311.735 313.541C311.925 313.351 312.182 313.245 312.45 313.245H323.924V321.047Z" fill="white"/>
<path d="M272.73 304.961H307.152V312.185H272.73C272.526 312.185 272.33 312.104 272.185 311.959C272.041 311.815 271.96 311.619 271.96 311.415V305.744C271.958 305.642 271.977 305.54 272.015 305.445C272.053 305.35 272.109 305.264 272.181 305.191C272.253 305.118 272.338 305.06 272.432 305.021C272.527 304.982 272.628 304.961 272.73 304.961Z" fill="#263238"/>
<path opacity="0.2" d="M272.73 304.961H307.152V312.185H272.73C272.526 312.185 272.33 312.104 272.185 311.959C272.041 311.815 271.96 311.619 271.96 311.415V305.744C271.958 305.642 271.977 305.54 272.015 305.445C272.053 305.35 272.109 305.264 272.181 305.191C272.253 305.118 272.338 305.06 272.432 305.021C272.527 304.982 272.628 304.961 272.73 304.961Z" fill="black"/>
<path d="M320.276 312.185H307.152V304.961H320.276C320.48 304.961 320.676 305.042 320.821 305.187C320.965 305.331 321.047 305.527 321.047 305.732V311.403C321.048 311.505 321.029 311.606 320.991 311.701C320.953 311.796 320.897 311.882 320.825 311.955C320.754 312.028 320.668 312.086 320.574 312.125C320.479 312.165 320.378 312.185 320.276 312.185Z" fill="#263238"/>
<path opacity="0.9" d="M321.059 311.114H309.584C309.452 311.114 309.32 311.087 309.197 311.037C309.075 310.986 308.963 310.911 308.869 310.817C308.775 310.723 308.701 310.612 308.65 310.489C308.599 310.366 308.573 310.235 308.573 310.102V307.044C308.573 306.776 308.68 306.519 308.869 306.329C309.059 306.139 309.316 306.033 309.584 306.033H321.059V311.114Z" fill="white"/>
<path d="M277.113 297.532H311.535V304.973H277.113C276.908 304.973 276.712 304.892 276.568 304.748C276.423 304.603 276.342 304.407 276.342 304.203V298.303C276.342 298.202 276.362 298.102 276.401 298.008C276.439 297.915 276.496 297.83 276.568 297.758C276.639 297.687 276.724 297.63 276.818 297.591C276.911 297.552 277.011 297.532 277.113 297.532Z" fill="#2E4BB7"/>
<path opacity="0.3" d="M277.113 297.532H311.535V304.973H277.113C276.908 304.973 276.712 304.892 276.568 304.748C276.423 304.603 276.342 304.407 276.342 304.203V298.303C276.342 298.202 276.362 298.102 276.401 298.008C276.439 297.915 276.496 297.83 276.568 297.758C276.639 297.687 276.724 297.63 276.818 297.591C276.911 297.552 277.011 297.532 277.113 297.532Z" fill="black"/>
<path d="M324.659 304.961H311.535V297.52H324.659C324.863 297.52 325.059 297.602 325.204 297.746C325.348 297.891 325.429 298.087 325.429 298.291V304.179C325.431 304.281 325.412 304.382 325.374 304.477C325.336 304.572 325.28 304.658 325.208 304.731C325.136 304.804 325.051 304.862 324.956 304.901C324.862 304.941 324.761 304.961 324.659 304.961Z" fill="#2E4BB7"/>
<path opacity="0.9" d="M325.429 303.902H313.955C313.687 303.902 313.43 303.795 313.24 303.605C313.05 303.416 312.944 303.158 312.944 302.89V299.603C312.944 299.335 313.05 299.078 313.24 298.888C313.43 298.699 313.687 298.592 313.955 298.592H325.429V303.902Z" fill="white"/>
<path d="M274.247 292.572H308.669V297.508H274.247C274.043 297.508 273.847 297.427 273.702 297.283C273.558 297.138 273.477 296.942 273.477 296.738V293.343C273.477 293.138 273.558 292.942 273.702 292.798C273.847 292.653 274.043 292.572 274.247 292.572Z" fill="#2E4BB7"/>
<path opacity="0.3" d="M274.247 292.572H308.669V297.508H274.247C274.043 297.508 273.847 297.427 273.702 297.283C273.558 297.138 273.477 296.942 273.477 296.738V293.343C273.477 293.138 273.558 292.942 273.702 292.798C273.847 292.653 274.043 292.572 274.247 292.572Z" fill="white"/>
<path opacity="0.2" d="M274.247 292.572H308.669V297.508H274.247C274.043 297.508 273.847 297.427 273.702 297.283C273.558 297.138 273.477 296.942 273.477 296.738V293.343C273.477 293.138 273.558 292.942 273.702 292.798C273.847 292.653 274.043 292.572 274.247 292.572Z" fill="black"/>
<path d="M321.805 297.557H308.682V292.62H321.805C322.009 292.62 322.205 292.701 322.35 292.846C322.495 292.99 322.576 293.186 322.576 293.391V296.774C322.577 296.876 322.559 296.978 322.521 297.073C322.483 297.167 322.426 297.254 322.354 297.327C322.283 297.399 322.197 297.457 322.103 297.497C322.009 297.536 321.907 297.557 321.805 297.557Z" fill="#2E4BB7"/>
<path opacity="0.3" d="M321.805 297.557H308.682V292.62H321.805C322.009 292.62 322.205 292.701 322.35 292.846C322.495 292.99 322.576 293.186 322.576 293.391V296.774C322.577 296.876 322.559 296.978 322.521 297.073C322.483 297.167 322.426 297.254 322.354 297.327C322.283 297.399 322.197 297.457 322.103 297.497C322.009 297.536 321.907 297.557 321.805 297.557Z" fill="white"/>
<path opacity="0.9" d="M322.564 296.461H311.09C310.821 296.461 310.564 296.354 310.374 296.165C310.185 295.975 310.078 295.718 310.078 295.45V294.667C310.078 294.399 310.185 294.142 310.374 293.952C310.564 293.762 310.821 293.656 311.09 293.656H322.564V296.449V296.461Z" fill="white"/>
<path d="M272.73 285.348H307.152V292.572H272.73C272.526 292.572 272.33 292.491 272.185 292.346C272.041 292.202 271.96 292.006 271.96 291.801V286.131C271.958 286.028 271.977 285.927 272.015 285.832C272.053 285.737 272.109 285.651 272.181 285.578C272.253 285.505 272.338 285.447 272.432 285.408C272.527 285.368 272.628 285.348 272.73 285.348Z" fill="#263238"/>
<path opacity="0.2" d="M272.73 285.348H307.152V292.572H272.73C272.526 292.572 272.33 292.491 272.185 292.346C272.041 292.202 271.96 292.006 271.96 291.801V286.131C271.958 286.028 271.977 285.927 272.015 285.832C272.053 285.737 272.109 285.651 272.181 285.578C272.253 285.505 272.338 285.447 272.432 285.408C272.527 285.368 272.628 285.348 272.73 285.348Z" fill="black"/>
<path d="M315.906 292.632H307.189V285.408H315.942C316.146 285.408 316.342 285.489 316.487 285.634C316.631 285.778 316.712 285.974 316.712 286.179V291.85C316.714 291.955 316.694 292.059 316.654 292.157C316.614 292.254 316.554 292.342 316.478 292.416C316.403 292.489 316.313 292.546 316.214 292.583C316.116 292.62 316.011 292.637 315.906 292.632Z" fill="#263238"/>
<path opacity="0.9" d="M316.688 291.525H309.585C309.316 291.525 309.059 291.418 308.869 291.228C308.68 291.039 308.573 290.781 308.573 290.513V287.455C308.573 287.187 308.68 286.93 308.869 286.74C309.059 286.55 309.316 286.444 309.585 286.444H316.688V291.525Z" fill="white"/>
<path d="M277.113 277.943H311.535V285.348H277.113C276.908 285.348 276.712 285.267 276.568 285.122C276.423 284.978 276.342 284.782 276.342 284.577V278.678C276.351 278.48 276.437 278.293 276.58 278.156C276.724 278.019 276.914 277.943 277.113 277.943Z" fill="#2E4BB7"/>
<path opacity="0.3" d="M277.113 277.943H311.535V285.348H277.113C276.908 285.348 276.712 285.267 276.568 285.122C276.423 284.978 276.342 284.782 276.342 284.577V278.678C276.351 278.48 276.437 278.293 276.58 278.156C276.724 278.019 276.914 277.943 277.113 277.943Z" fill="black"/>
<path d="M320.288 285.384H311.535V277.979H320.288C320.492 277.979 320.688 278.061 320.833 278.205C320.977 278.35 321.059 278.546 321.059 278.75V284.638C321.052 284.838 320.968 285.028 320.825 285.167C320.681 285.306 320.488 285.384 320.288 285.384Z" fill="#2E4BB7"/>
<path opacity="0.9" d="M321.059 284.312H313.955C313.687 284.312 313.43 284.206 313.24 284.016C313.05 283.827 312.944 283.569 312.944 283.301V280.014C312.944 279.746 313.05 279.489 313.24 279.299C313.43 279.109 313.687 279.003 313.955 279.003H321.059V284.312Z" fill="white"/>
<path d="M274.247 273.019H308.669V277.955H274.247C274.043 277.955 273.847 277.874 273.702 277.73C273.558 277.585 273.477 277.389 273.477 277.185V273.79C273.477 273.585 273.558 273.389 273.702 273.245C273.847 273.1 274.043 273.019 274.247 273.019Z" fill="#2E4BB7"/>
<path opacity="0.3" d="M274.247 273.019H308.669V277.955H274.247C274.043 277.955 273.847 277.874 273.702 277.73C273.558 277.585 273.477 277.389 273.477 277.185V273.79C273.477 273.585 273.558 273.389 273.702 273.245C273.847 273.1 274.043 273.019 274.247 273.019Z" fill="white"/>
<path opacity="0.2" d="M274.247 273.019H308.669V277.955H274.247C274.043 277.955 273.847 277.874 273.702 277.73C273.558 277.585 273.477 277.389 273.477 277.185V273.79C273.477 273.585 273.558 273.389 273.702 273.245C273.847 273.1 274.043 273.019 274.247 273.019Z" fill="black"/>
<path d="M317.435 277.943H308.682V273.007H317.435C317.639 273.007 317.835 273.088 317.979 273.233C318.124 273.377 318.205 273.573 318.205 273.778V277.173C318.205 277.377 318.124 277.573 317.979 277.718C317.835 277.862 317.639 277.943 317.435 277.943Z" fill="#2E4BB7"/>
<path opacity="0.3" d="M317.435 277.943H308.682V273.007H317.435C317.639 273.007 317.835 273.088 317.979 273.233C318.124 273.377 318.205 273.573 318.205 273.778V277.173C318.205 277.377 318.124 277.573 317.979 277.718C317.835 277.862 317.639 277.943 317.435 277.943Z" fill="white"/>
<path opacity="0.9" d="M318.193 276.884H311.09C310.821 276.884 310.564 276.777 310.374 276.588C310.185 276.398 310.078 276.141 310.078 275.873V275.09C310.078 274.822 310.185 274.564 310.374 274.375C310.564 274.185 310.821 274.079 311.09 274.079H318.193V276.872V276.884Z" fill="white"/>
<path d="M128.527 405.146L120.581 401.161L127.034 381.415L134.98 385.4L128.527 405.146Z" fill="#FFC3BD"/>
<path d="M121.279 398.054L131.031 400.101C131.198 400.131 131.346 400.224 131.445 400.361C131.544 400.498 131.586 400.668 131.561 400.836L130.357 408.65C130.27 409.052 130.028 409.405 129.683 409.63C129.338 409.855 128.919 409.936 128.515 409.854C125.132 409.083 123.542 408.541 119.256 407.638C116.619 407.084 107.505 405.23 103.99 404.026C100.474 402.822 101.762 399.367 103.363 399.571C110.587 400.462 116.764 399.656 119.617 398.247C120.133 397.996 120.719 397.928 121.279 398.054Z" fill="#263238"/>
<path opacity="0.2" d="M134.98 385.412L127.034 381.427L123.338 392.757L131.657 395.586L134.98 385.412Z" fill="black"/>
<path d="M215.516 285.866C215.516 285.866 147.382 292.464 141.687 317.278C133.487 352.929 122.423 386.809 122.423 386.809L137.665 389.494C140.001 379.344 157.375 343.742 165.526 319.746C183.983 316.989 233.323 327.464 240.716 313.425C244.382 306.296 246.395 298.431 246.603 290.417L215.516 285.866Z" fill="#2E4BB7"/>
<path opacity="0.3" d="M215.516 285.866C215.516 285.866 147.382 292.464 141.687 317.278C133.487 352.929 122.423 386.809 122.423 386.809L137.665 389.494C140.001 379.344 157.375 343.742 165.526 319.746C183.983 316.989 233.323 327.464 240.716 313.425C244.382 306.296 246.395 298.431 246.603 290.417L215.516 285.866Z" fill="black"/>
<path d="M138.568 394.888L120.749 388.434L121.604 381.271L140.254 386.183L138.568 394.888Z" fill="#2E4BB7"/>
<path d="M117.884 398.921C118.677 399.071 119.485 399.128 120.292 399.09C120.332 399.09 120.371 399.078 120.405 399.057C120.439 399.036 120.466 399.005 120.484 398.969C120.502 398.936 120.512 398.899 120.512 398.861C120.512 398.823 120.502 398.786 120.484 398.753C120.243 398.5 118.076 396.345 116.993 396.489C116.86 396.513 116.736 396.569 116.63 396.653C116.525 396.738 116.443 396.847 116.391 396.971C116.277 397.151 116.217 397.36 116.217 397.573C116.217 397.786 116.277 397.994 116.391 398.175C116.783 398.594 117.313 398.858 117.884 398.921ZM119.762 398.681C118.149 398.681 117.017 398.38 116.692 397.886C116.624 397.773 116.588 397.644 116.588 397.513C116.588 397.381 116.624 397.252 116.692 397.139C116.711 397.078 116.747 397.022 116.796 396.98C116.845 396.937 116.905 396.909 116.969 396.899C117.607 396.79 118.895 397.826 119.762 398.681Z" fill="#2E4BB7"/>
<path d="M120.219 399.09H120.316C120.348 399.079 120.377 399.06 120.4 399.034C120.423 399.009 120.44 398.979 120.448 398.945C120.448 398.849 121.207 396.381 120.448 395.333C120.359 395.199 120.24 395.087 120.1 395.008C119.959 394.928 119.802 394.883 119.641 394.876C119.468 394.843 119.289 394.87 119.133 394.953C118.977 395.037 118.855 395.171 118.787 395.333C118.389 396.236 119.304 398.319 120.051 399.018L120.219 399.09ZM119.762 395.321C119.842 395.337 119.919 395.368 119.987 395.413C120.056 395.459 120.114 395.518 120.159 395.586C120.467 396.521 120.467 397.529 120.159 398.464C119.468 397.642 119.123 396.585 119.196 395.514C119.196 395.406 119.34 395.285 119.641 395.309L119.762 395.321Z" fill="#2E4BB7"/>
<path d="M222.86 223.486C222.451 227.965 221.801 232.179 221.103 236.502C220.404 240.824 219.489 245.086 218.369 249.385C217.278 253.79 215.861 258.108 214.131 262.303C213.199 264.594 212.067 266.797 210.748 268.889C210.003 270.082 209.153 271.206 208.208 272.248C207.071 273.529 205.743 274.625 204.271 275.499L203.765 275.788L203.488 275.885C200.874 276.78 198.052 276.872 195.385 276.149C193.405 275.641 191.496 274.889 189.702 273.91C188.08 273.024 186.527 272.018 185.055 270.9C184.332 270.358 183.658 269.768 182.984 269.178C182.285 268.588 181.618 267.961 180.985 267.3L184.766 261.822C186.175 262.279 187.692 262.869 189.148 263.303C190.605 263.736 192.05 264.206 193.435 264.507C194.673 264.816 195.94 264.994 197.215 265.037C198.287 265.037 199.045 264.748 198.853 264.663L198.07 265.049C198.881 264.279 199.554 263.375 200.057 262.376C200.894 260.826 201.615 259.217 202.212 257.56C203.51 253.855 204.583 250.076 205.426 246.242C206.305 242.305 207.064 238.296 207.726 234.202C208.388 230.108 208.93 226.015 209.484 222.09L222.86 223.486Z" fill="#FFC3BD"/>
<path d="M210.965 216.889C202.681 224.113 203.139 241.691 203.139 241.691L225.028 249.589C229.663 242.365 231.939 228.567 231.529 222.644C230.891 213.541 220.79 208.292 210.965 216.889Z" fill="#263238"/>
<path opacity="0.2" d="M231.541 222.981C227.604 221.091 222.222 221.693 216.901 226.34C212.085 230.542 210.218 238.284 209.52 244.003L225.028 249.589C229.579 242.486 231.854 229.061 231.541 222.981Z" fill="black"/>
<path d="M97.1267 384.1L94.4779 375.624L112.899 365.631L115.536 374.107L97.1267 384.1Z" fill="#FFC3BD"/>
<path d="M95.116 374.829L101.786 382.234C101.845 382.292 101.892 382.361 101.924 382.438C101.956 382.514 101.972 382.596 101.972 382.679C101.972 382.762 101.956 382.844 101.924 382.921C101.892 382.997 101.845 383.067 101.786 383.125L96.2478 388.772C96.0962 388.911 95.9185 389.019 95.725 389.09C95.5315 389.161 95.3259 389.192 95.1201 389.183C94.9143 389.174 94.7122 389.125 94.5256 389.038C94.3389 388.951 94.1713 388.827 94.0324 388.675C91.7568 386.063 90.7937 384.69 87.8559 381.451C86.0499 379.453 79.7048 372.843 77.2125 370.073C74.7202 367.304 77.5256 364.92 78.8259 365.872C84.6773 370.122 90.5408 373.529 93.6832 374.071C94.23 374.163 94.7325 374.429 95.116 374.829Z" fill="#263238"/>
<path opacity="0.2" d="M115.536 374.107L112.899 365.631L99.4625 372.927L105.061 379.802L115.536 374.107Z" fill="black"/>
<path d="M230.927 288.358C230.927 288.358 184.212 294.619 174.58 307.405C157.808 329.667 104.748 366.401 104.748 366.401L109.564 381.921C109.564 381.921 181.876 351.424 194.735 325.923C218.357 324.105 256.789 331.883 262.845 317.218C266.879 307.453 264.904 292.873 264.904 292.873L230.927 288.358Z" fill="#2E4BB7"/>
<path opacity="0.2" d="M230.927 288.358C230.927 288.358 184.212 294.619 174.58 307.405C157.808 329.667 104.748 366.401 104.748 366.401L109.564 381.921C109.564 381.921 181.876 351.424 194.735 325.923C218.357 324.105 256.789 331.883 262.845 317.218C266.879 307.453 264.904 292.873 264.904 292.873L230.927 288.358Z" fill="black"/>
<path d="M110.503 384.172L100.221 367.593L106.795 362.187L116.692 380.031L110.503 384.172Z" fill="#2E4BB7"/>
<path d="M91.793 373.529C92.3427 374.106 92.9522 374.622 93.611 375.07C93.6448 375.093 93.6846 375.105 93.7254 375.105C93.7661 375.105 93.806 375.093 93.8398 375.07C93.8754 375.05 93.9038 375.02 93.9211 374.983C93.9384 374.947 93.9437 374.905 93.9361 374.865C93.9361 374.528 93.4906 371.506 92.4431 370.989C92.3271 370.924 92.1965 370.891 92.0639 370.891C91.9312 370.891 91.8007 370.924 91.6846 370.989C91.5047 371.077 91.3499 371.21 91.2342 371.374C91.1186 371.538 91.0458 371.728 91.0224 371.928C91.0657 372.54 91.3413 373.113 91.793 373.529ZM93.4545 374.456C92.1542 373.481 91.4077 372.59 91.4438 372.048C91.4584 371.917 91.5074 371.793 91.5856 371.687C91.6638 371.581 91.7686 371.498 91.8893 371.446C91.946 371.413 92.0104 371.396 92.0759 371.396C92.1414 371.396 92.2058 371.413 92.2625 371.446C92.8164 371.651 93.2498 373.24 93.4545 374.444V374.456Z" fill="#2E4BB7"/>
<path d="M93.5749 375.046H93.6591C93.6867 375.067 93.7206 375.079 93.7555 375.079C93.7904 375.079 93.8243 375.067 93.8518 375.046C93.9481 375.046 95.9708 373.421 96.019 372.18C96.0227 372.019 95.9912 371.859 95.9267 371.712C95.8623 371.564 95.7664 371.432 95.6457 371.326C95.5195 371.201 95.3561 371.12 95.1802 371.096C95.0043 371.073 94.8254 371.106 94.6705 371.193C93.8157 371.687 93.3341 373.914 93.5267 374.926C93.5314 374.969 93.5481 375.011 93.5749 375.046ZM95.4411 371.735C95.4953 371.795 95.537 371.866 95.5639 371.942C95.5907 372.018 95.6022 372.099 95.5976 372.18C95.5976 372.927 94.5381 373.962 93.8999 374.504C93.84 373.44 94.1889 372.394 94.8752 371.578C94.9546 371.534 95.0471 371.518 95.137 371.533C95.2268 371.548 95.3087 371.594 95.3688 371.663L95.4411 371.735Z" fill="#2E4BB7"/>
<path d="M187.09 263.483L180.01 256.645L175.098 266.277C175.098 266.277 183.694 270.984 185.849 268.829L187.09 263.483Z" fill="#FFC3BD"/>
<path d="M170.607 256.572L169.331 264.471L175.098 266.216L180.01 256.645L170.607 256.572Z" fill="#FFC3BD"/>
<path d="M264.422 210.941C263.532 208.593 261.942 206.269 259.426 206.305C258.908 206.305 255.814 206.305 255.26 206.378C252.37 206.45 248.758 206.643 245.267 207.088C238.58 207.858 231.943 209.012 225.389 210.543C222.379 211.362 219.489 212.386 217.178 213.265H217.093C215.78 213.778 214.671 214.706 213.934 215.908C213.197 217.11 212.873 218.52 213.012 219.923C214.216 232.649 217.202 267.986 215.42 286.287L264.784 292.789C267.746 283.373 268.925 261.81 268.95 244.231C269.046 233.672 268.095 220.537 264.422 210.941Z" fill="#263238"/>
<path opacity="0.2" d="M268.781 235.189L267.806 235.262L261.545 240.68L255.067 262.99L232.818 266.879C238.223 269.612 253.948 270.166 263.243 267.697C264.766 267.28 266.115 266.386 267.094 265.147C268.073 263.908 268.63 262.389 268.685 260.81C268.913 255.236 269.022 249.577 269.022 244.268C269.022 241.39 268.962 238.32 268.781 235.189Z" fill="black"/>
<path d="M188.896 242.474C188.896 242.474 193.242 240.066 201.393 242.401C205.932 243.845 210.826 243.705 215.275 242.004L218.321 247.711L190.629 248.674L188.896 242.474Z" fill="#2E4BB7"/>
<path opacity="0.8" d="M188.896 242.474C188.896 242.474 193.242 240.066 201.393 242.401C205.932 243.845 210.826 243.705 215.275 242.004L218.321 247.711L190.629 248.674L188.896 242.474Z" fill="white"/>
<path d="M188.896 242.474C188.896 242.474 188.715 240.728 183.453 240.547C172.87 240.198 168.403 237.489 168.403 237.489L167.97 240.222L190.617 248.65L188.896 242.474Z" fill="#2E4BB7"/>
<path opacity="0.8" d="M188.896 242.474C188.896 242.474 188.715 240.728 183.453 240.547C172.87 240.198 168.403 237.489 168.403 237.489L167.97 240.222L190.617 248.65L188.896 242.474Z" fill="white"/>
<path d="M197.793 283.097L178.192 277.51C177.947 277.433 177.725 277.297 177.545 277.115C177.364 276.932 177.231 276.708 177.157 276.462L167.127 240.15C167.071 239.982 167.063 239.802 167.103 239.63C167.144 239.458 167.232 239.3 167.357 239.175C167.482 239.05 167.639 238.962 167.811 238.922C167.983 238.881 168.164 238.89 168.331 238.946L187.005 244.28L197.793 283.097Z" fill="#2E4BB7"/>
<path d="M228.29 284.794L202.525 283.361L191.797 244.52L217.924 245.977C218.219 246.003 218.5 246.118 218.728 246.308C218.956 246.497 219.121 246.751 219.2 247.037L229.29 283.542C229.348 283.693 229.366 283.857 229.342 284.017C229.317 284.178 229.251 284.329 229.15 284.455C229.049 284.582 228.916 284.68 228.765 284.739C228.615 284.799 228.451 284.818 228.29 284.794Z" fill="#2E4BB7"/>
<path d="M197.793 283.097L202.525 283.361L191.797 244.52L187.065 244.255L197.793 283.097Z" fill="#2E4BB7"/>
<path opacity="0.3" d="M197.793 283.097L202.525 283.361L191.797 244.52L187.065 244.255L197.793 283.097Z" fill="black"/>
<path d="M266.842 219.766C267.095 221.5 267.264 222.969 267.384 224.582C267.505 226.195 267.589 227.688 267.661 229.254C267.77 232.36 267.745 235.478 267.553 238.609C267.246 245.033 266.076 251.387 264.073 257.499C264.073 257.608 263.857 258.126 263.712 258.511C263.543 258.897 263.354 259.275 263.146 259.643C262.762 260.317 262.31 260.95 261.798 261.533C260.937 262.501 259.934 263.333 258.824 264.001C257.116 265.019 255.277 265.797 253.358 266.313C250.161 267.156 246.884 267.652 243.581 267.794C237.43 268.083 231.265 267.74 225.184 266.77L225.497 260.112C231.153 259.595 236.779 258.791 242.353 257.704C244.901 257.224 247.4 256.51 249.818 255.573C250.714 255.233 251.558 254.767 252.322 254.188C252.575 253.972 252.695 253.791 252.671 253.767C252.647 253.743 252.611 253.767 252.575 253.851C252.54 253.893 252.508 253.938 252.479 253.984C252.407 254.201 252.479 253.984 252.479 253.984C253.068 251.423 253.511 248.83 253.803 246.218C254.056 243.545 254.237 240.836 254.273 238.091C254.309 235.346 254.273 232.577 254.152 229.807C254.092 228.423 254.02 227.038 253.912 225.666L253.743 223.607L253.562 221.68L266.842 219.766Z" fill="#FFC3BD"/>
<path d="M266.843 209.123C260.991 204.656 252.912 204.788 249.601 216.551C247.434 224.257 248.59 239.765 248.59 239.765L271.96 239.295C274.572 226.966 272.766 213.65 266.843 209.123Z" fill="#263238"/>
<path d="M242.967 187.439L238.055 193.206L231.361 201.068C231.78 202.07 232.129 203.1 232.408 204.15C233.612 208.316 229.819 209.159 226.388 211.266C226.388 211.266 221.247 218.068 233.612 216.082C245.977 214.095 247.735 207.654 247.735 207.654C242.185 203.885 242.582 194.639 242.967 187.439Z" fill="#FFC3BD"/>
<path d="M237.332 215.275C236.087 215.631 234.82 215.909 233.54 216.106C231.889 216.409 230.207 216.51 228.531 216.407L228.242 217.84C227.797 218.153 227.688 219.826 230.506 221.813C233.48 221.199 238.091 218.658 237.332 215.275Z" fill="#2E4BB7"/>
<path d="M245.544 205.583C245.544 205.583 243.208 211.832 234.708 214.119C235.912 217.43 233.937 221.199 233.937 221.199C233.937 221.199 245.797 217.141 248.265 213.084C250.733 209.026 249.674 206.655 249.674 206.655C248.387 206.012 246.98 205.646 245.544 205.583Z" fill="#263238"/>
<path d="M228.76 220.922C228.76 220.922 228.844 215.745 230.361 214.011C229.567 211.675 229.988 210.399 231.216 208.364C228.627 208.876 226.336 210.368 224.823 212.53C223.198 215.239 224.329 220.994 228.76 220.922Z" fill="#263238"/>
<path opacity="0.2" d="M231.361 201.068C231.78 202.07 232.129 203.1 232.408 204.15C235.225 203.055 238.585 199.262 238.428 196.204C238.397 195.192 238.256 194.187 238.007 193.206L231.361 201.068Z" fill="black"/>
<path d="M215.046 173.617C212.723 178.493 214.721 190.075 225.738 185.464C236.755 180.853 218.827 165.707 215.046 173.617Z" fill="#263238"/>
<path d="M239.223 183.742C238.211 185.849 239.078 190.858 243.834 188.871C248.59 186.885 240.8 180.323 239.223 183.742Z" fill="#263238"/>
<path d="M240.559 187.114C239.018 188.871 238.5 193.928 243.629 193.29C248.758 192.652 243.052 184.212 240.559 187.114Z" fill="#263238"/>
<path d="M241.763 173.966C243.762 183.297 245.375 188.631 242.136 194.783C241.099 196.793 239.531 198.48 237.603 199.663C235.676 200.845 233.461 201.478 231.2 201.493C228.938 201.508 226.715 200.904 224.772 199.747C222.829 198.59 221.24 196.923 220.175 194.928C215.937 187.318 213.373 173.34 221.223 166.886C222.887 165.447 224.899 164.469 227.06 164.052C229.22 163.635 231.452 163.793 233.532 164.51C235.612 165.227 237.467 166.478 238.912 168.137C240.357 169.797 241.34 171.807 241.763 173.966Z" fill="#FFC3BD"/>
<path d="M240.102 163.118C238.199 154.834 227.098 157.712 221.44 162.721C215.781 167.729 214.324 171.666 209.556 174.628C218.357 175.832 230.819 172.341 233.155 169.379C233.149 170.846 233.49 172.294 234.152 173.604C234.813 174.914 235.775 176.049 236.959 176.916C236.794 179.51 236.794 182.112 236.959 184.706L240.981 182.659L245.664 180.781C252.575 169.102 248.494 161.89 240.102 163.118Z" fill="#263238"/>
<path d="M230.072 180.383C229.997 180.384 229.924 180.358 229.866 180.309C229.809 180.261 229.771 180.193 229.759 180.118C229.751 180.077 229.75 180.035 229.758 179.993C229.766 179.952 229.783 179.913 229.806 179.878C229.83 179.843 229.86 179.813 229.896 179.791C229.931 179.768 229.971 179.752 230.012 179.745L243.064 177.518C243.148 177.504 243.235 177.524 243.305 177.573C243.375 177.623 243.422 177.698 243.437 177.783C243.444 177.824 243.442 177.866 243.432 177.906C243.423 177.947 243.405 177.985 243.38 178.019C243.356 178.053 243.325 178.081 243.289 178.102C243.253 178.124 243.213 178.138 243.172 178.144L230.121 180.371L230.072 180.383Z" fill="white"/>
<path d="M228.327 188.125C225.919 188.125 223.27 185.536 222.415 182.394C222.14 181.624 222.046 180.801 222.14 179.989C222.234 179.177 222.513 178.397 222.957 177.71C223.231 177.33 223.593 177.022 224.013 176.812C224.432 176.602 224.896 176.498 225.365 176.506C227.773 176.506 230.434 179.095 231.288 182.237C231.558 183.011 231.648 183.836 231.552 184.649C231.456 185.462 231.177 186.243 230.735 186.933C230.46 187.312 230.097 187.618 229.678 187.826C229.258 188.034 228.794 188.136 228.327 188.125ZM225.304 177.193C224.944 177.186 224.588 177.264 224.263 177.421C223.939 177.578 223.656 177.809 223.438 178.096C223.063 178.708 222.829 179.397 222.754 180.111C222.679 180.826 222.764 181.548 223.005 182.225C223.787 185.115 226.171 187.475 228.314 187.487C228.678 187.506 229.041 187.434 229.369 187.276C229.698 187.118 229.981 186.88 230.193 186.584C230.57 185.972 230.806 185.284 230.884 184.569C230.961 183.855 230.877 183.132 230.638 182.454C229.856 179.565 227.472 177.205 225.329 177.193H225.304Z" fill="white"/>
<path d="M220.874 184.212C220.818 184.224 220.761 184.224 220.705 184.212C220.668 184.191 220.635 184.162 220.609 184.128C220.583 184.094 220.564 184.055 220.554 184.013C220.544 183.971 220.542 183.928 220.55 183.885C220.557 183.843 220.573 183.802 220.597 183.767C220.875 183.408 221.248 183.136 221.674 182.98C222.1 182.825 222.561 182.792 223.005 182.888C223.086 182.91 223.155 182.962 223.2 183.034C223.244 183.105 223.261 183.19 223.246 183.273C223.226 183.355 223.174 183.427 223.102 183.472C223.03 183.517 222.943 183.532 222.86 183.514C222.86 183.514 221.656 183.249 221.091 184.104C221.064 184.136 221.031 184.162 220.994 184.181C220.956 184.199 220.915 184.21 220.874 184.212Z" fill="white"/>
<path d="M247.362 181.106C246.804 183.492 245.396 185.594 243.401 187.017C240.788 188.799 238.741 186.584 238.85 183.478C238.946 180.684 240.415 176.398 243.34 175.856C246.266 175.314 248.024 178.192 247.362 181.106Z" fill="#FFC3BD"/>
<path d="M226.882 181.804C227.231 182.49 227.147 183.249 226.701 183.49C226.256 183.73 225.618 183.369 225.268 182.671C224.919 181.973 225.016 181.226 225.449 180.985C225.882 180.744 226.533 181.106 226.882 181.804Z" fill="#263238"/>
<path d="M219.248 184.934C219.561 185.645 219.441 186.391 218.984 186.608C218.526 186.825 217.9 186.427 217.599 185.717C217.298 185.007 217.418 184.248 217.876 184.043C218.333 183.839 218.947 184.212 219.248 184.934Z" fill="#263238"/>
<path d="M215.396 180.684C215.469 180.664 215.535 180.626 215.59 180.573C215.645 180.521 215.686 180.455 215.709 180.383C215.88 179.837 216.172 179.337 216.564 178.92C216.956 178.503 217.438 178.18 217.972 177.975C218.086 177.939 218.182 177.86 218.238 177.754C218.295 177.648 218.307 177.524 218.273 177.409C218.258 177.352 218.231 177.299 218.195 177.253C218.159 177.206 218.113 177.168 218.061 177.139C218.009 177.111 217.952 177.094 217.893 177.089C217.835 177.083 217.775 177.09 217.719 177.108C217.033 177.356 216.414 177.762 215.914 178.293C215.414 178.824 215.047 179.466 214.842 180.167C214.821 180.223 214.813 180.282 214.816 180.342C214.82 180.401 214.836 180.459 214.863 180.512C214.89 180.566 214.928 180.613 214.974 180.65C215.02 180.688 215.073 180.716 215.131 180.732C215.222 180.747 215.315 180.73 215.396 180.684Z" fill="#263238"/>
<path d="M219.044 190.605C216.852 190.605 214.432 188.197 213.65 185.38C213.402 184.674 213.319 183.921 213.407 183.178C213.494 182.435 213.75 181.722 214.155 181.094C214.408 180.76 214.736 180.49 215.113 180.308C215.489 180.126 215.904 180.036 216.323 180.046C218.526 180.046 220.946 182.454 221.729 185.272C221.974 185.976 222.056 186.726 221.969 187.467C221.881 188.208 221.626 188.918 221.223 189.546C220.971 189.884 220.641 190.156 220.262 190.341C219.883 190.525 219.465 190.616 219.044 190.605ZM216.299 180.672C215.976 180.666 215.657 180.736 215.368 180.879C215.079 181.021 214.828 181.231 214.637 181.491C214.294 182.041 214.08 182.661 214.011 183.305C213.942 183.95 214.02 184.602 214.24 185.211C214.95 187.824 217.093 189.955 219.056 189.967C219.379 189.975 219.699 189.906 219.99 189.766C220.281 189.626 220.534 189.418 220.729 189.16C221.069 188.609 221.281 187.989 221.35 187.345C221.419 186.702 221.342 186.051 221.127 185.44C220.416 182.827 218.261 180.696 216.311 180.624L216.299 180.672Z" fill="white"/>
<path d="M221.777 183.827C221.713 186.016 221.357 188.186 220.717 190.28C221.25 190.417 221.807 190.435 222.348 190.333C222.889 190.231 223.401 190.012 223.848 189.69L221.777 183.827Z" fill="#ED847E"/>
<path d="M225.413 192.459C226.277 192.216 227.083 191.8 227.782 191.238C228.482 190.675 229.06 189.976 229.482 189.184C229.494 189.157 229.501 189.127 229.501 189.097C229.501 189.067 229.496 189.037 229.485 189.009C229.473 188.981 229.457 188.956 229.436 188.934C229.415 188.912 229.39 188.895 229.362 188.883C229.307 188.862 229.246 188.86 229.191 188.88C229.135 188.9 229.089 188.94 229.061 188.992C228.594 189.847 227.936 190.582 227.138 191.142C226.34 191.702 225.425 192.07 224.462 192.219C224.402 192.23 224.349 192.264 224.313 192.313C224.278 192.362 224.262 192.423 224.269 192.483C224.281 192.542 224.315 192.594 224.365 192.628C224.414 192.662 224.475 192.675 224.534 192.664C224.831 192.617 225.125 192.549 225.413 192.459Z" fill="#263238"/>
<path d="M227.989 176.169C228.055 176.133 228.11 176.079 228.146 176.013C228.208 175.909 228.226 175.785 228.197 175.667C228.168 175.55 228.093 175.449 227.989 175.387C227.379 175.014 226.688 174.796 225.974 174.752C225.26 174.708 224.547 174.839 223.896 175.134C223.842 175.16 223.794 175.198 223.755 175.243C223.716 175.289 223.686 175.342 223.668 175.4C223.65 175.457 223.644 175.517 223.65 175.577C223.656 175.637 223.674 175.695 223.703 175.748C223.76 175.854 223.856 175.934 223.971 175.97C224.086 176.006 224.21 175.996 224.317 175.94C224.832 175.716 225.393 175.619 225.953 175.659C226.513 175.699 227.055 175.874 227.532 176.169C227.6 176.213 227.679 176.237 227.761 176.237C227.842 176.237 227.921 176.213 227.989 176.169Z" fill="#263238"/>
<path d="M227.881 260.485L220.332 257.283L220.585 266.915C220.585 266.915 228.062 269.937 229.302 265.952L227.881 260.485Z" fill="#FFC3BD"/>
<path d="M210.953 259.438L212.614 266.289L220.597 266.879L220.344 257.283L210.953 259.438Z" fill="#FFC3BD"/>
</svg>
