<svg width="227" height="60" viewBox="0 0 227 60" fill="none" xmlns="http://www.w3.org/2000/svg">
<path fill-rule="evenodd" clip-rule="evenodd" d="M2.45929 2.30373C4.18042 4.6591 5.33356 7.55804 5.33356 10.3979V45.2057H25.6227C27.0258 45.2057 28.5648 45.9539 29.6207 46.8299C30.7259 47.7471 31.516 48.9399 31.7999 50.3038H35.4763C35.7602 48.9399 36.5501 47.7471 37.6553 46.83C38.7112 45.9537 40.2504 45.2057 41.6535 45.2057H61.9425V10.3979C61.9425 7.55804 63.0955 4.6591 64.8167 2.30373H40.2C37.9451 2.30373 35.9362 4.15256 34.4439 5.62883L33.6381 6.42593L32.8323 5.62903C31.3398 4.15256 29.3311 2.30373 27.076 2.30373H2.45929Z" fill="#DEC69F"/>
<path d="M93.3739 46.3288V1.21479H101.582V46.3288H93.3739Z" fill="#2E4BB7"/>
<path d="M114.807 10.6242C113.331 10.6242 112.082 10.1516 111.061 9.20642C110.041 8.26114 109.53 7.0151 109.53 5.46844C109.53 3.92153 110.041 2.6755 111.061 1.73029C112.082 0.785068 113.331 0.312509 114.807 0.312509C116.327 0.312509 117.587 0.785068 118.586 1.73029C119.585 2.6755 120.084 3.92153 120.084 5.46844C120.084 7.0151 119.585 8.26114 118.586 9.20642C117.587 10.1516 116.327 10.6242 114.807 10.6242Z" fill="#95D177"/>
<path d="M110.703 46.3288V14.3623H118.912V46.3288H110.703Z" fill="#2E4BB7"/>
<path d="M147.446 47.231C144.537 47.231 142.3 46.737 140.736 45.7488C139.173 44.7605 138.022 43.665 137.283 42.4619H136.111V46.3288H128.032V1.21479H136.241V18.0359H137.414C137.891 17.2624 138.532 16.532 139.336 15.8446C140.139 15.1571 141.203 14.5878 142.528 14.1367C143.853 13.6856 145.492 13.46 147.446 13.46C150.052 13.46 152.463 14.0937 154.678 15.3613C156.893 16.6288 158.674 18.4871 160.02 20.936C161.367 23.3851 162.04 26.3497 162.04 29.8299V30.8611C162.04 34.3414 161.367 37.306 160.02 39.7551C158.674 42.2041 156.893 44.0624 154.678 45.3298C152.463 46.5973 150.052 47.231 147.446 47.231ZM144.971 40.1417C147.49 40.1417 149.596 39.3362 151.29 37.7249C152.984 36.1137 153.831 33.7613 153.831 30.6678V30.0233C153.831 26.9298 152.995 24.5774 151.323 22.9662C149.651 21.355 147.533 20.5494 144.971 20.5494C142.452 20.5494 140.345 21.355 138.652 22.9662C136.958 24.5774 136.111 26.9298 136.111 30.0233V30.6678C136.111 33.7613 136.958 36.1137 138.652 37.7249C140.345 39.3362 142.452 40.1417 144.971 40.1417Z" fill="#2E4BB7"/>
<path d="M169.597 46.3288V14.3623H177.676V17.9714H178.848C179.326 16.6824 180.119 15.7371 181.226 15.1356C182.334 14.5342 183.626 14.2334 185.103 14.2334H189.012V21.4517H184.972C182.888 21.4517 181.172 21.9994 179.826 23.0951C178.479 24.1906 177.806 25.8771 177.806 28.1543V46.3288H169.597Z" fill="#2E4BB7"/>
<path d="M198.914 59.2185V52.1291H216.504C217.72 52.1291 218.328 51.4847 218.328 50.1957V42.1397H217.156C216.808 42.8701 216.265 43.6004 215.527 44.3308C214.789 45.0613 213.79 45.6628 212.53 46.1355C211.27 46.608 209.664 46.8443 207.709 46.8443C205.19 46.8443 202.986 46.2751 201.097 45.1365C199.207 43.998 197.741 42.419 196.699 40.3996C195.657 38.3802 195.135 36.06 195.135 33.4391V14.3623H203.344V32.7945C203.344 35.2007 203.941 37.0052 205.136 38.2083C206.33 39.4113 208.035 40.0128 210.25 40.0128C212.769 40.0128 214.724 39.1857 216.113 37.5315C217.503 35.8775 218.198 33.568 218.198 30.6034V14.3623H226.407V52.0002C226.407 54.1915 225.755 55.9424 224.452 57.2529C223.149 58.5633 221.412 59.2185 219.24 59.2185H198.914Z" fill="#2E4BB7"/>
<path fill-rule="evenodd" clip-rule="evenodd" d="M33.6379 4.83185C31.6944 2.90923 29.5938 1.17658 27.0758 1.17658H0C2.08977 3.24365 4.19409 6.71486 4.19409 10.3977V46.3328H25.6223C27.4599 46.3328 30.7758 48.2621 30.7758 51.431H36.4998C36.4998 48.2621 39.8156 46.3328 41.6532 46.3328H63.0817V10.3977C63.0817 6.71486 65.1859 3.24365 67.2756 1.17658H40.1997C37.6819 1.17658 35.5814 2.90923 33.6379 4.83185ZM16.8352 9.78792C18.5939 9.78792 20.0197 11.1984 20.0197 12.9381C20.0197 14.6781 18.5939 16.0886 16.8352 16.0886C15.0764 16.0886 13.6506 14.6781 13.6506 12.9381C13.6506 11.1984 15.0764 9.78792 16.8352 9.78792ZM37.0615 28.5264H56.8616L56.8758 24.1524H37.0615H34.0564C26.3606 24.1524 20.064 30.3814 20.064 37.9948V40.6555H25.6223C28.6467 40.6555 31.5287 42.0174 33.6379 44.1348C35.747 42.0174 38.629 40.6555 41.6532 40.6555H56.839C56.839 38.5003 56.8419 36.3253 56.8468 34.1384H42.7343L37.0615 28.5264ZM56.8937 18.5406H37.0615V10.1785C37.0615 9.23545 38.5093 7.35198 40.3133 7.35198H56.9134C56.9134 11.0361 56.905 14.7787 56.8937 18.5406ZM30.4216 18.5558C21.4827 18.9177 14.2837 26.2614 14.2837 35.1888V40.6555H10.4365C10.4365 29.7203 10.4365 18.2872 10.4365 7.35198H26.9623C28.4021 7.35198 30.4216 8.33506 30.4216 10.1785V18.5558Z" fill="#2E4BB7"/>
</svg>
